<?xml version="1.0" encoding="UTF-8"?>
<!DOCTYPE svg PUBLIC "-//W3C//DTD SVG 1.1//EN" "http://www.w3.org/Graphics/SVG/1.1/DTD/svg11.dtd">
<svg xmlns="http://www.w3.org/2000/svg" width="24" height="24" viewBox="0 0 24 24">
	<path d="M 1.9003906 3.1992188 C 1.0003906 3.1992187 0.30078125 3.9007813 0.30078125 4.8007812 L 0.30078125 17.099609 C 0.30078125 17.999609 1.0003906 18.699219 1.9003906 18.699219 L 22.199219 18.699219 C 23.099219 18.699219 23.800781 17.999609 23.800781 17.099609 L 23.800781 4.8007812 C 23.800781 3.9007813 23.099219 3.1992188 22.199219 3.1992188 L 1.9003906 3.1992188 z M 9.5996094 7.5 L 15.699219 10.900391 L 9.5996094 14.400391 L 9.5996094 7.5 z"/>
	<path d="M17.3,20.8H6.7c-0.3,0-0.5-0.2-0.5-0.5v0c0-0.3,0.2-0.5,0.5-0.5h10.7 c0.3,0,0.5,0.2,0.5,0.5v0C17.9,20.6,17.6,20.8,17.3,20.8z"/>
</svg>
