<?xml version="1.0" encoding="UTF-8"?>
<!DOCTYPE svg PUBLIC "-//W3C//DTD SVG 1.1//EN" "http://www.w3.org/Graphics/SVG/1.1/DTD/svg11.dtd">
<svg xmlns="http://www.w3.org/2000/svg" width="24" height="24" viewBox="0 0 24 24">
	<path d="M 6 3.5449219 C 5.8145455 3.5449219 5.6300284 3.6221169 5.4609375 3.7148438 L 0.55078125 6.5019531 C 0.21259942 6.6983168 0 7.0584446 0 7.4511719 L 0 13.679688 C 0 14.072415 0.21259942 14.432543 0.55078125 14.628906 L 11.460938 20.826172 C 11.630028 20.924353 11.814545 21 12 21 C 12.185455 21 12.369973 20.922809 12.539062 20.830078 L 23.449219 14.634766 C 23.792855 14.438402 24 14.078274 24 13.685547 L 24 7.4511719 C 24 7.0584446 23.787401 6.6983168 23.449219 6.5019531 L 18.539062 3.7148438 C 18.369972 3.6221165 18.185455 3.5449219 18 3.5449219 C 17.814545 3.5449219 17.630029 3.6221169 17.460938 3.7148438 L 12.539062 6.5136719 C 12.206335 6.704581 11.799119 6.704581 11.460938 6.5136719 L 6.5390625 3.7148438 C 6.3699716 3.6221165 6.1854545 3.5449219 6 3.5449219 z M 18.136719 4.0917969 L 23.455078 7.0917969 L 18.136719 10.226562 L 18.136719 4.0917969 z"/>
</svg>
