<?xml version="1.0" encoding="UTF-8"?>
<!DOCTYPE svg PUBLIC "-//W3C//DTD SVG 1.1//EN" "http://www.w3.org/Graphics/SVG/1.1/DTD/svg11.dtd">
<svg height="24" viewBox="0 0 24 24" width="24" xmlns="http://www.w3.org/2000/svg">
	<path d="m3 6h18v-2h-18c-1.1 0-2 0.9-2 2v12c0 1.1 0.9 2 2 2h4v-2h-4v-12zm10 6h-4v1.78c-0.61 0.55-1 1.33-1 2.22s0.39 1.67 1 2.22v1.78h4v-1.78c0.61-0.55 1-1.34 1-2.22s-0.39-1.67-1-2.22v-1.78zm-2 5.5c-0.83 0-1.5-0.67-1.5-1.5s0.67-1.5 1.5-1.5 1.5 0.67 1.5 1.5-0.67 1.5-1.5 1.5zm11-9.5h-6c-0.5 0-1 0.5-1 1v10c0 0.5 0.5 1 1 1h6c0.5 0 1-0.5 1-1v-10c0-0.5-0.5-1-1-1zm-1 10h-4v-8h4v8z"/>
</svg>