<?xml version="1.0" encoding="UTF-8"?>
<!DOCTYPE svg PUBLIC "-//W3C//DTD SVG 1.1//EN" "http://www.w3.org/Graphics/SVG/1.1/DTD/svg11.dtd">
<svg height="24" viewBox="0 0 24 24" width="24" xmlns="http://www.w3.org/2000/svg">
	<path d="m20.78 13.16l-6.05-3.02c-0.23-0.09-0.47-0.14-0.73-0.14h-1v-2h1.75c1.66 0 3-1.34 3-3s-1.34-3-3-3c-0.75 0-1.14 0.22-1.75 0.75v-0.75c0-1.1-0.9-2-2-2s-2 0.9-2 2v0.75c-0.61-0.53-1-0.75-1.75-0.75-1.66 0-3 1.34-3 3s1.34 3 3 3h1.75v8.31l-4.57-0.95c-0.1-0.02-0.21-0.03-0.32-0.03-0.41 0-0.79 0.17-1.06 0.44l-1.05 1.06 6.59 6.59c0.36 0.36 0.86 0.58 1.41 0.58h9.06c1 0 1.77-0.74 1.92-1.7l1-7.03c0.01-0.09 0.02-0.18 0.02-0.27 0-0.83-0.5-1.54-1.22-1.84zm-11.53-6.16h-2c-1.1 0-2-0.9-2-2s0.9-2 2-2 2 0.9 2 2v2zm3.5-2c0-1.1 0.9-2 2-2s2 0.9 2 2-0.9 2-2 2h-2v-2z"/>
</svg>