<?xml version="1.0" encoding="UTF-8"?>
<!DOCTYPE svg PUBLIC "-//W3C//DTD SVG 1.1//EN" "http://www.w3.org/Graphics/SVG/1.1/DTD/svg11.dtd">
<svg xmlns="http://www.w3.org/2000/svg" width="24" height="24" viewBox="0 0 24 24">
	<path fill="#f00" d="m 17.46,3.7145456 -4.92,2.7981819 c -0.332727,0.1909091 -0.741818,0.1909091 -1.08,0 L 6.54,3.7145456 C 6.3709091,3.6218184 6.1854545,3.5454548 6,3.5454548 c -0.1854545,0 -0.3709091,0.076364 -0.54,0.1690908 L 0.55090909,6.5018184 C 0.21272726,6.6981821 0,7.058182 0,7.4509093 V 13.68 c 0,0.392728 0.21272726,0.752728 0.55090909,0.949091 L 11.46,20.825455 C 11.629091,20.923636 11.814545,21 12,21 c 0.185455,0 0.37091,-0.07636 0.54,-0.169091 L 23.449091,14.634546 C 23.792727,14.438182 24,14.078182 24,13.685455 V 7.4509093 C 24,7.058182 23.787273,6.6981821 23.449091,6.5018184 L 18.54,3.7145456 C 18.370909,3.6218184 18.185455,3.5454548 18,3.5454548 c -0.185455,0 -0.370909,0.076364 -0.54,0.1690908 z"/>
	<path fill="#fff" d="m 18.136364,4.0909093 0,6.1363637 5.318181,-3.1363637 z"/>
</svg>
