<?xml version="1.0" encoding="UTF-8"?><!DOCTYPE svg PUBLIC "-//W3C//DTD SVG 1.1//EN" "http://www.w3.org/Graphics/SVG/1.1/DTD/svg11.dtd"><svg xmlns="http://www.w3.org/2000/svg" width="24" height="24"><path d="M11.53 2a4.35 4.35 0 0 0 4.35 4.35h1.78v1.7A4.35 4.35 0 0 0 22 12.4V2.84a.84.84 0 0 0-.84-.84zM6.77 6.8a4.35 4.35 0 0 0 4.34 4.34h1.8v1.72a4.35 4.35 0 0 0 4.34 4.34V7.63a.84.84 0 0 0-.83-.83zM2 11.6a4.35 4.35 0 0 0 4.35 4.34h1.78v1.72A4.35 4.35 0 0 0 12.47 22v-9.57a.84.84 0 0 0-.84-.84z"/></svg>