<?xml version="1.0" encoding="UTF-8"?><!DOCTYPE svg PUBLIC "-//W3C//DTD SVG 1.1//EN" "http://www.w3.org/Graphics/SVG/1.1/DTD/svg11.dtd"><svg xmlns="http://www.w3.org/2000/svg" width="24" height="24"><path d="M20.78 13.16l-6.05-3.02c-.23-.1-.47-.14-.73-.14h-1V8h1.75c1.66 0 3-1.34 3-3s-1.34-3-3-3c-.75 0-1.14.22-1.75.75V2c0-1.1-.9-2-2-2S9 .9 9 2v.75C8.4 2.22 8 2 7.25 2c-1.66 0-3 1.34-3 3s1.34 3 3 3H9v8.3l-4.57-.94c-.1-.02-.2-.03-.32-.03-.4 0-.77.17-1.04.44L2 16.83l6.6 6.6c.35.35.85.57 1.4.57h9.06c1 0 1.77-.74 1.92-1.7l1-7.03L22 15c0-.83-.5-1.54-1.22-1.84zM9.25 7h-2c-1.1 0-2-.9-2-2s.9-2 2-2 2 .9 2 2v2zm3.5-2c0-1.1.9-2 2-2s2 .9 2 2-.9 2-2 2h-2V5z"/></svg>