<?xml version="1.0" encoding="UTF-8"?><!DOCTYPE svg PUBLIC "-//W3C//DTD SVG 1.1//EN" "http://www.w3.org/Graphics/SVG/1.1/DTD/svg11.dtd"><svg xmlns="http://www.w3.org/2000/svg" width="24" height="24"><path d="M19.5 2h-15A2.5 2.5 0 0 0 2 4.5v15A2.5 2.5 0 0 0 4.5 22h15a2.5 2.5 0 0 0 2.5-2.5v-15A2.5 2.5 0 0 0 19.5 2zm-8.8 15.2a1.2 1.2 0 0 1-1.2 1.2H5.8a1.2 1.2 0 0 1-1.2-1.2V5.8a1.2 1.2 0 0 1 1.2-1.2h3.7a1.2 1.2 0 0 1 1.2 1.2zm8.7-5a1.2 1.2 0 0 1-1.2 1.2h-3.7a1.2 1.2 0 0 1-1.2-1.2V5.8a1.2 1.2 0 0 1 1.2-1.2h3.7a1.2 1.2 0 0 1 1.2 1.2z"/></svg>