<?xml version="1.0" encoding="UTF-8"?><!DOCTYPE svg PUBLIC "-//W3C//DTD SVG 1.1//EN" "http://www.w3.org/Graphics/SVG/1.1/DTD/svg11.dtd"><svg xmlns="http://www.w3.org/2000/svg" width="24" height="24" viewBox="0 0 24 24"><path d="M6 3.54c-.2 0-.37.08-.54.17L.56 6.5c-.35.2-.56.56-.56.95v6.23c0 .4.2.75.55.95l10.9 6.2c.18.1.36.17.55.17.2 0 .37-.08.54-.17l10.9-6.2c.35-.2.56-.55.56-.94V7.4c0-.4-.2-.75-.55-.95l-4.9-2.8c-.18-.1-.36-.17-.55-.17-.2 0-.37.1-.54.18l-4.92 2.8c-.33.2-.74.2-1.08 0L6.54 3.7c-.17-.08-.35-.16-.54-.16zm12.14.55l5.32 3-5.32 3.1V4.1z"/></svg>
