<?xml version="1.0" encoding="utf-8"?>
<!DOCTYPE svg PUBLIC "-//W3C//DTD SVG 1.1//EN" "http://www.w3.org/Graphics/SVG/1.1/DTD/svg11.dtd">
<svg fill="#fff" height="240" viewBox="0 0 960 240" width="960" xmlns="http://www.w3.org/2000/svg">
	<title>Community-led Iconography</title>
	<style>
		.alpha20{fill-opacity:.2;}
		.alpha40{fill-opacity:.4;}
	</style>
<!--bg-->
	<rect fill="#512da8" height="240" width="960" x="0" y="0"/>
	<path class="alpha20" d="M 0,103L 0,0L 179,0L 0,103 Z"/>
	<path class="alpha20" d="M 820.366,517.792L 1204,292.292L 1058.06,44.0081L 674.425,269.508L 820.366,517.792 Z"/>
<!--h-->
	<path d="M 254.021,118.1L 254.065,118.219C 253.815,121.069 252.798,123.311 251.015,124.947C 249.231,126.582 246.842,127.4 243.846,127.4C 240.684,127.4 238.133,126.259 236.193,123.978C 234.253,121.697 233.284,118.744 233.284,115.119L 233.284,110.5C 233.284,106.888 234.253,103.934 236.193,101.641C 238.133,99.3469 240.684,98.2 243.846,98.2C 246.867,98.2 249.263,99.0011 251.034,100.603C 252.804,102.205 253.815,104.456 254.065,107.356L 254.021,107.475L 251.834,107.475C 251.521,105.121 250.711,103.32 249.402,102.072C 248.094,100.824 246.242,100.2 243.846,100.2C 241.359,100.2 239.363,101.16 237.859,103.081C 236.354,105.002 235.602,107.46 235.602,110.456L 235.602,115.106C 235.602,118.144 236.354,120.619 237.859,122.531C 239.363,124.444 241.359,125.4 243.846,125.4C 246.242,125.4 248.097,124.79 249.412,123.569C 250.726,122.348 251.534,120.525 251.834,118.1L 254.021,118.1 Z"/>
	<path d="M 258.277,116.075C 258.277,112.954 259.13,110.395 260.837,108.397C 262.543,106.399 264.802,105.4 267.615,105.4C 270.44,105.4 272.705,106.399 274.412,108.397C 276.118,110.395 276.971,112.954 276.971,116.075L 276.971,116.725C 276.971,119.858 276.121,122.421 274.421,124.413C 272.721,126.404 270.465,127.4 267.652,127.4C 264.815,127.4 262.543,126.404 260.837,124.413C 259.13,122.421 258.277,119.858 258.277,116.725L 258.277,116.075 Z M 260.621,116.713C 260.621,119.167 261.24,121.228 262.477,122.897C 263.715,124.566 265.44,125.4 267.652,125.4C 269.827,125.4 271.537,124.566 272.78,122.897C 274.024,121.228 274.646,119.167 274.646,116.713L 274.646,116.069C 274.646,113.656 274.021,111.608 272.771,109.925C 271.521,108.242 269.802,107.4 267.615,107.4C 265.427,107.4 263.715,108.242 262.477,109.925C 261.24,111.608 260.621,113.656 260.621,116.069L 260.621,116.713 Z"/>
	<path d="M 283.959,105.8L 284.177,109.3C 284.852,108.058 285.753,107.098 286.88,106.419C 288.008,105.74 289.352,105.4 290.915,105.4C 292.527,105.4 293.877,105.792 294.965,106.575C 296.052,107.358 296.831,108.554 297.302,110.163C 297.94,108.675 298.848,107.509 300.027,106.666C 301.206,105.822 302.642,105.4 304.334,105.4C 306.584,105.4 308.321,106.151 309.546,107.653C 310.771,109.155 311.384,111.481 311.384,114.631L 311.384,127L 309.04,127L 309.04,114.569C 309.04,111.948 308.58,110.098 307.662,109.019C 306.743,107.94 305.465,107.4 303.827,107.4C 302.015,107.4 300.614,107.97 299.624,109.109C 298.635,110.249 298.023,111.708 297.79,113.488C 297.79,113.579 297.793,113.71 297.799,113.881C 297.805,114.052 297.809,114.177 297.809,114.256L 297.809,127L 295.446,127L 295.446,114.569C 295.446,112.002 294.98,110.166 294.049,109.059C 293.118,107.953 291.838,107.4 290.209,107.4C 288.559,107.4 287.248,107.822 286.277,108.666C 285.306,109.509 284.625,110.646 284.234,112.075L 284.234,127L 281.871,127L 281.871,105.8L 283.959,105.8 Z"/>
	<path d="M 319.559,105.8L 319.777,109.3C 320.452,108.058 321.353,107.098 322.48,106.419C 323.608,105.74 324.952,105.4 326.515,105.4C 328.127,105.4 329.477,105.792 330.565,106.575C 331.652,107.358 332.431,108.554 332.902,110.163C 333.54,108.675 334.448,107.509 335.627,106.666C 336.806,105.822 338.242,105.4 339.934,105.4C 342.184,105.4 343.921,106.151 345.146,107.653C 346.371,109.155 346.984,111.481 346.984,114.631L 346.984,127L 344.64,127L 344.64,114.569C 344.64,111.948 344.18,110.098 343.262,109.019C 342.343,107.94 341.065,107.4 339.427,107.4C 337.615,107.4 336.214,107.97 335.224,109.109C 334.235,110.249 333.623,111.708 333.39,113.488C 333.39,113.579 333.393,113.71 333.399,113.881C 333.405,114.052 333.409,114.177 333.409,114.256L 333.409,127L 331.046,127L 331.046,114.569C 331.046,112.002 330.58,110.166 329.649,109.059C 328.718,107.953 327.438,107.4 325.809,107.4C 324.159,107.4 322.848,107.822 321.877,108.666C 320.906,109.509 320.225,110.646 319.834,112.075L 319.834,127L 317.471,127L 317.471,105.8L 319.559,105.8 Z"/>
	<path d="M 366.834,123.525C 366.159,124.763 365.248,125.718 364.102,126.391C 362.956,127.064 361.602,127.4 360.04,127.4C 357.815,127.4 356.07,126.643 354.805,125.128C 353.541,123.614 352.909,121.265 352.909,118.081L 352.909,105.8L 355.252,105.8L 355.252,118.144C 355.252,120.731 355.692,122.588 356.571,123.713C 357.45,124.838 358.698,125.4 360.315,125.4C 362.086,125.4 363.498,125.001 364.552,124.203C 365.606,123.405 366.342,122.306 366.759,120.906L 366.759,105.8L 369.102,105.8L 369.102,127L 367.034,127L 366.834,123.525 Z"/>
	<path d="M 377.459,105.8L 377.671,109.494C 378.35,108.19 379.266,107.181 380.418,106.469C 381.57,105.756 382.934,105.4 384.509,105.4C 386.8,105.4 388.545,106.102 389.743,107.506C 390.941,108.91 391.54,111.102 391.54,114.081L 391.54,127L 389.196,127L 389.196,114.075C 389.196,111.642 388.744,109.921 387.84,108.913C 386.936,107.904 385.65,107.4 383.984,107.4C 382.342,107.4 381.003,107.835 379.968,108.706C 378.933,109.577 378.188,110.733 377.734,112.175L 377.734,127L 375.39,127L 375.39,105.8L 377.459,105.8 Z"/>
	<path d="M 400.609,127L 398.284,127L 398.284,105.8L 400.609,105.8L 400.609,127 Z M 400.609,99.8L 398.284,99.8L 398.284,96.6L 400.609,96.6L 400.609,99.8 Z"/>
	<path d="M 410.659,100.2L 410.659,105.8L 415.309,105.8L 415.309,107.8L 410.659,107.8L 410.659,121.588C 410.659,122.971 410.91,123.952 411.412,124.531C 411.914,125.11 412.582,125.4 413.415,125.4C 413.794,125.4 414.162,125.384 414.518,125.353C 414.874,125.322 415.288,125.267 415.759,125.188L 416.109,126.888C 415.717,127.05 415.242,127.176 414.684,127.266C 414.125,127.355 413.565,127.4 413.002,127.4C 411.519,127.4 410.364,126.932 409.537,125.997C 408.71,125.061 408.296,123.579 408.296,121.55L 408.296,107.8L 404.646,107.8L 404.646,105.8L 408.296,105.8L 408.296,100.2L 410.659,100.2 Z"/>
	<path d="M 426.184,121.175L 426.927,123.688L 427.046,123.688L 433.434,105.8L 436.046,105.8L 426.871,130.256C 426.321,131.685 425.611,132.9 424.74,133.9C 423.869,134.9 422.592,135.4 420.909,135.4C 420.638,135.4 420.306,135.372 419.915,135.316C 419.523,135.259 419.238,135.2 419.059,135.138L 419.327,133.263C 419.486,133.292 419.737,133.322 420.08,133.353C 420.424,133.384 420.675,133.4 420.834,133.4C 421.85,133.4 422.664,133.039 423.274,132.316C 423.885,131.593 424.406,130.665 424.84,129.531L 425.952,126.675L 417.784,105.8L 420.384,105.8L 426.184,121.175 Z"/>
	<rect x="437.859" y="113.8" width="9.35626" height="2"/>
	<rect x="451.884" y="96.6" width="2.32498" height="30.4"/>
	<path d="M 468.521,127.4C 465.875,127.4 463.677,126.421 461.927,124.463C 460.177,122.504 459.302,120.023 459.302,117.019L 459.302,115.938C 459.302,112.908 460.171,110.395 461.909,108.397C 463.646,106.399 465.752,105.4 468.227,105.4C 470.819,105.4 472.856,106.234 474.34,107.903C 475.823,109.572 476.565,111.796 476.565,114.575L 476.565,116.6L 461.646,116.6L 461.646,117.156C 461.646,119.502 462.277,121.463 463.54,123.038C 464.802,124.613 466.463,125.4 468.521,125.4C 469.979,125.4 471.222,125.198 472.249,124.794C 473.276,124.39 474.154,123.81 474.884,123.056L 475.884,124.656C 475.088,125.494 474.081,126.16 472.865,126.656C 471.648,127.152 470.2,127.4 468.521,127.4 Z M 468.227,107.4C 466.494,107.4 465.042,108.075 463.871,109.425C 462.7,110.775 462.017,112.467 461.821,114.5L 461.859,114.6L 474.24,114.6L 474.24,114C 474.24,112.125 473.699,110.556 472.618,109.294C 471.537,108.031 470.073,107.4 468.227,107.4 Z"/>
	<path d="M 481.071,116.569C 481.071,113.185 481.784,110.478 483.209,108.447C 484.634,106.416 486.623,105.4 489.177,105.4C 490.648,105.4 491.924,105.714 493.005,106.341C 494.087,106.968 494.986,107.856 495.702,109.006L 495.702,96.6L 498.021,96.6L 498.021,127L 495.952,127L 495.759,123.913C 495.054,125.038 494.149,125.9 493.043,126.5C 491.937,127.1 490.636,127.4 489.14,127.4C 486.611,127.4 484.634,126.456 483.209,124.569C 481.784,122.681 481.071,120.15 481.071,116.975L 481.071,116.569 Z M 483.415,116.981C 483.415,119.552 483.926,121.598 484.949,123.119C 485.972,124.64 487.511,125.4 489.565,125.4C 491.077,125.4 492.338,125.059 493.346,124.378C 494.354,123.697 495.14,122.752 495.702,121.544L 495.702,111.55C 495.165,110.317 494.409,109.317 493.434,108.55C 492.459,107.783 491.184,107.4 489.609,107.4C 487.55,107.4 486.003,108.249 484.968,109.947C 483.933,111.645 483.415,113.852 483.415,116.569L 483.415,116.981 Z"/>
	<rect x="514.54" y="98.6" width="2.34375" height="28.4"/>
	<path d="M 531.821,125.4C 533.371,125.4 534.739,124.959 535.924,124.078C 537.11,123.197 537.702,121.973 537.702,120.406L 539.771,120.406L 539.809,120.525C 539.875,122.479 539.094,124.114 537.465,125.428C 535.836,126.743 533.954,127.4 531.821,127.4C 528.942,127.4 526.718,126.41 525.149,124.431C 523.58,122.452 522.796,119.908 522.796,116.8L 522.796,115.981C 522.796,112.898 523.584,110.364 525.159,108.378C 526.734,106.393 528.948,105.4 531.802,105.4C 534.119,105.4 536.049,106.083 537.593,107.45C 539.137,108.817 539.881,110.613 539.827,112.838L 539.79,112.956L 537.702,112.956C 537.702,111.265 537.133,109.916 535.993,108.909C 534.853,107.903 533.456,107.4 531.802,107.4C 529.536,107.4 527.859,108.211 526.771,109.834C 525.684,111.457 525.14,113.502 525.14,115.969L 525.14,116.794C 525.14,119.298 525.68,121.358 526.762,122.975C 527.843,124.592 529.529,125.4 531.821,125.4 Z"/>
	<path d="M 543.877,116.075C 543.877,112.954 544.73,110.395 546.437,108.397C 548.143,106.399 550.402,105.4 553.215,105.4C 556.04,105.4 558.305,106.399 560.012,108.397C 561.718,110.395 562.571,112.954 562.571,116.075L 562.571,116.725C 562.571,119.858 561.721,122.421 560.021,124.413C 558.321,126.404 556.065,127.4 553.252,127.4C 550.415,127.4 548.143,126.404 546.437,124.413C 544.73,122.421 543.877,119.858 543.877,116.725L 543.877,116.075 Z M 546.221,116.713C 546.221,119.167 546.84,121.228 548.077,122.897C 549.315,124.566 551.04,125.4 553.252,125.4C 555.427,125.4 557.137,124.566 558.38,122.897C 559.624,121.228 560.246,119.167 560.246,116.713L 560.246,116.069C 560.246,113.656 559.621,111.608 558.371,109.925C 557.121,108.242 555.402,107.4 553.215,107.4C 551.027,107.4 549.315,108.242 548.077,109.925C 546.84,111.608 546.221,113.656 546.221,116.069L 546.221,116.713 Z"/>
	<path d="M 569.459,105.8L 569.671,109.494C 570.35,108.19 571.266,107.181 572.418,106.469C 573.57,105.756 574.934,105.4 576.509,105.4C 578.8,105.4 580.545,106.102 581.743,107.506C 582.941,108.91 583.54,111.102 583.54,114.081L 583.54,127L 581.196,127L 581.196,114.075C 581.196,111.642 580.744,109.921 579.84,108.913C 578.936,107.904 577.65,107.4 575.984,107.4C 574.342,107.4 573.003,107.835 571.968,108.706C 570.933,109.577 570.188,110.733 569.734,112.175L 569.734,127L 567.39,127L 567.39,105.8L 569.459,105.8 Z"/>
	<path d="M 588.677,116.075C 588.677,112.954 589.53,110.395 591.237,108.397C 592.943,106.399 595.202,105.4 598.015,105.4C 600.84,105.4 603.105,106.399 604.812,108.397C 606.518,110.395 607.371,112.954 607.371,116.075L 607.371,116.725C 607.371,119.858 606.521,122.421 604.821,124.413C 603.121,126.404 600.865,127.4 598.052,127.4C 595.215,127.4 592.943,126.404 591.237,124.413C 589.53,122.421 588.677,119.858 588.677,116.725L 588.677,116.075 Z M 591.021,116.713C 591.021,119.167 591.64,121.228 592.877,122.897C 594.115,124.566 595.84,125.4 598.052,125.4C 600.227,125.4 601.937,124.566 603.18,122.897C 604.424,121.228 605.046,119.167 605.046,116.713L 605.046,116.069C 605.046,113.656 604.421,111.608 603.171,109.925C 601.921,108.242 600.202,107.4 598.015,107.4C 595.827,107.4 594.115,108.242 592.877,109.925C 591.64,111.608 591.021,113.656 591.021,116.069L 591.021,116.713 Z"/>
	<path d="M 611.871,116.569C 611.871,113.185 612.591,110.478 614.03,108.447C 615.47,106.416 617.471,105.4 620.034,105.4C 621.534,105.4 622.83,105.73 623.924,106.391C 625.018,107.051 625.921,107.981 626.634,109.181L 626.909,105.8L 628.884,105.8L 628.884,126.613C 628.884,129.325 628.131,131.468 626.627,133.041C 625.123,134.614 623.029,135.4 620.346,135.4C 619.329,135.4 618.248,135.281 617.102,135.044C 615.956,134.806 614.954,134.483 614.096,134.075L 614.702,132.131C 615.536,132.548 616.415,132.864 617.34,133.078C 618.265,133.293 619.254,133.4 620.309,133.4C 622.367,133.4 623.92,132.809 624.968,131.628C 626.016,130.447 626.54,128.804 626.54,126.7L 626.54,124.05C 625.823,125.121 624.918,125.947 623.824,126.528C 622.73,127.109 621.454,127.4 619.996,127.4C 617.459,127.4 615.47,126.453 614.03,124.559C 612.591,122.666 611.871,120.138 611.871,116.975L 611.871,116.569 Z M 614.215,116.981C 614.215,119.54 614.736,121.582 615.777,123.109C 616.819,124.636 618.369,125.4 620.427,125.4C 621.936,125.4 623.195,125.051 624.205,124.353C 625.216,123.655 625.994,122.694 626.54,121.469L 626.54,111.625C 626.031,110.388 625.286,109.374 624.302,108.584C 623.319,107.795 622.04,107.4 620.465,107.4C 618.406,107.4 616.85,108.252 615.796,109.956C 614.742,111.66 614.215,113.865 614.215,116.569L 614.215,116.981 Z"/>
	<path d="M 642.915,107.519L 641.177,107.4C 639.706,107.4 638.499,107.821 637.555,108.663C 636.612,109.504 635.938,110.663 635.534,112.138L 635.534,127L 633.19,127L 633.19,105.8L 635.24,105.8L 635.534,109.319L 635.534,109.556C 636.146,108.248 636.966,107.228 637.993,106.497C 639.02,105.766 640.244,105.4 641.665,105.4C 641.965,105.4 642.254,105.42 642.534,105.459C 642.813,105.499 643.044,105.542 643.227,105.588L 642.915,107.519 Z"/>
	<path d="M 661.965,127C 661.811,126.279 661.701,125.657 661.637,125.134C 661.572,124.611 661.54,124.081 661.54,123.544C 660.756,124.652 659.714,125.572 658.412,126.303C 657.11,127.034 655.646,127.4 654.021,127.4C 651.963,127.4 650.364,126.856 649.224,125.769C 648.085,124.681 647.515,123.227 647.515,121.406C 647.515,119.465 648.357,117.911 650.043,116.747C 651.728,115.582 654.004,115 656.871,115L 661.54,115L 661.54,112.331C 661.54,110.794 661.054,109.588 660.084,108.713C 659.113,107.838 657.754,107.4 656.009,107.4C 654.384,107.4 653.034,107.819 651.959,108.656C 650.884,109.494 650.346,110.517 650.346,111.725L 648.196,111.706L 648.159,111.588C 648.079,109.988 648.798,108.556 650.315,107.294C 651.831,106.031 653.763,105.4 656.109,105.4C 658.438,105.4 660.313,105.995 661.734,107.184C 663.154,108.374 663.865,110.079 663.865,112.3L 663.865,122.725C 663.865,123.471 663.906,124.197 663.99,124.903C 664.073,125.609 664.213,126.308 664.409,127L 661.965,127 Z M 654.29,125.4C 655.969,125.4 657.453,124.998 658.743,124.194C 660.033,123.39 660.965,122.365 661.54,121.119L 661.54,117L 656.834,117C 654.709,117 653.012,117.442 651.743,118.325C 650.474,119.208 649.84,120.304 649.84,121.613C 649.84,122.729 650.234,123.64 651.021,124.344C 651.809,125.048 652.898,125.4 654.29,125.4 Z"/>
	<path d="M 686.402,116.975C 686.402,120.15 685.686,122.681 684.252,124.569C 682.819,126.456 680.846,127.4 678.334,127.4C 676.85,127.4 675.551,127.12 674.437,126.559C 673.322,125.999 672.415,125.196 671.715,124.15L 671.715,135L 669.371,135L 669.371,105.8L 671.34,105.8L 671.634,109.081C 672.338,107.906 673.246,106.999 674.359,106.359C 675.471,105.72 676.784,105.4 678.296,105.4C 680.834,105.4 682.819,106.416 684.252,108.447C 685.686,110.478 686.402,113.185 686.402,116.569L 686.402,116.975 Z M 684.059,116.538C 684.059,113.846 683.524,111.65 682.455,109.95C 681.387,108.25 679.823,107.4 677.765,107.4C 676.19,107.4 674.911,107.776 673.927,108.528C 672.944,109.28 672.206,110.256 671.715,111.456L 671.715,121.656C 672.248,122.819 673.019,123.733 674.027,124.4C 675.036,125.067 676.296,125.4 677.809,125.4C 679.85,125.4 681.402,124.629 682.465,123.088C 683.527,121.546 684.059,119.5 684.059,116.95L 684.059,116.538 Z"/>
	<path d="M 694.534,109.419C 695.238,108.152 696.175,107.166 697.346,106.459C 698.517,105.753 699.883,105.4 701.446,105.4C 703.671,105.4 705.379,106.093 706.571,107.478C 707.763,108.864 708.358,111.013 708.358,113.925L 708.358,127L 706.015,127L 706.015,113.863C 706.015,111.558 705.563,109.905 704.659,108.903C 703.754,107.901 702.508,107.4 700.921,107.4C 699.317,107.4 697.978,107.822 696.905,108.666C 695.832,109.509 695.042,110.633 694.534,112.038L 694.534,127L 692.19,127L 692.19,96.6L 694.534,96.6L 694.534,109.419 Z"/>
	<path d="M 720.45,121.175L 721.194,123.688L 721.313,123.688L 727.7,105.8L 730.313,105.8L 721.138,130.256C 720.588,131.685 719.877,132.9 719.006,133.9C 718.136,134.9 716.859,135.4 715.175,135.4C 714.904,135.4 714.573,135.372 714.181,135.316C 713.79,135.259 713.504,135.2 713.325,135.138L 713.594,133.263C 713.752,133.292 714.003,133.322 714.347,133.353C 714.691,133.384 714.942,133.4 715.1,133.4C 716.117,133.4 716.93,133.039 717.541,132.316C 718.151,131.593 718.673,130.665 719.106,129.531L 720.219,126.675L 712.05,105.8L 714.65,105.8L 720.45,121.175 Z"/>
<!--svg-->
	<rect x="19" y="193.008" class="alpha40" width="1" height="38"/>
	<rect x="44" y="193.008" class="alpha40" width="1" height="38"/>
	<rect x="13" y="199.008" class="alpha40" width="38" height="1"/>
	<rect x="13" y="224.008" class="alpha40" width="38" height="1"/>
	<path d="M 32.8931,202.997L 34.8494,203.413L 31.1069,221.019L 29.1506,220.604L 32.8931,202.997 Z M 39.5858,212.001L 36,208.415L 36,205.587L 42.4216,212.008L 36,218.419L 36,215.587L 39.5858,212.001 Z M 21.5784,212.011L 28,205.59L 28,208.418L 24.4142,212.004L 28,215.59L 28,218.422L 21.5784,212.011 Z"/>
	<path d="M 66.88,217.816C 66.88,216.891 66.5325,216.134 65.8375,215.547C 65.1425,214.959 63.9313,214.441 62.2038,213.991C 60.3363,213.523 58.9225,212.915 57.9625,212.166C 57.0025,211.418 56.5225,210.408 56.5225,209.138C 56.5225,207.836 57.0594,206.775 58.1331,205.956C 59.2069,205.138 60.5875,204.728 62.275,204.728C 64.0325,204.728 65.4506,205.216 66.5294,206.193C 67.6081,207.169 68.1312,208.359 68.0988,209.764L 68.065,209.836L 66.775,209.836C 66.775,208.698 66.3706,207.763 65.5619,207.029C 64.7531,206.295 63.6575,205.928 62.275,205.928C 60.9075,205.928 59.8387,206.233 59.0688,206.843C 58.2988,207.453 57.9138,208.212 57.9138,209.119C 57.9138,209.979 58.2694,210.697 58.9806,211.272C 59.6919,211.847 60.9188,212.353 62.6613,212.791C 64.4963,213.258 65.8925,213.888 66.85,214.681C 67.8075,215.473 68.2863,216.518 68.2863,217.816C 68.2863,219.168 67.7294,220.245 66.6156,221.046C 65.5019,221.848 64.0825,222.248 62.3575,222.248C 60.655,222.248 59.1688,221.821 57.8988,220.966C 56.6288,220.111 56.0138,218.863 56.0538,217.223L 56.0763,217.152L 57.3663,217.152C 57.3663,218.474 57.8619,219.454 58.8531,220.092C 59.8444,220.729 61.0125,221.048 62.3575,221.048C 63.7075,221.048 64.7988,220.753 65.6312,220.161C 66.4638,219.57 66.88,218.788 66.88,217.816 Z"/>
	<path d="M 76.4313,219.124L 76.7725,220.261L 76.84,220.261L 77.1813,219.124L 82.3038,204.968L 83.8263,204.968L 77.4625,222.008L 76.1388,222.008L 69.775,204.968L 71.2975,204.968L 76.4313,219.124 Z"/>
	<path d="M 98.815,219.961C 98.4325,220.518 97.735,221.039 96.7225,221.523C 95.71,222.006 94.435,222.248 92.8975,222.248C 90.9125,222.248 89.285,221.574 88.015,220.225C 86.745,218.876 86.11,217.129 86.11,214.984L 86.11,211.861C 86.11,209.756 86.7138,208.041 87.9213,206.716C 89.1288,205.391 90.6938,204.728 92.6162,204.728C 94.4513,204.728 95.8863,205.188 96.9213,206.106C 97.9563,207.025 98.5563,208.218 98.7213,209.686L 98.6988,209.757L 97.3975,209.757C 97.1925,208.617 96.7113,207.694 95.9538,206.988C 95.1963,206.281 94.0837,205.928 92.6162,205.928C 91.0837,205.928 89.8506,206.481 88.9169,207.586C 87.9831,208.691 87.5163,210.107 87.5163,211.834L 87.5163,214.977C 87.5163,216.752 88.0125,218.208 89.005,219.344C 89.9975,220.48 91.295,221.048 92.8975,221.048C 94.03,221.048 94.9925,220.889 95.785,220.57C 96.5775,220.251 97.1188,219.903 97.4088,219.526L 97.4088,215.048L 92.8713,215.048L 92.8713,213.848L 98.815,213.848L 98.815,219.961 Z"/>
<!--vectors-->
	<rect x="120" y="193.008" class="alpha40" width="1" height="38"/>
	<rect x="145" y="193.008" class="alpha40" width="1" height="38"/>
	<rect x="114" y="199.008" class="alpha40" width="38" height="1"/>
	<rect x="114" y="224.008" class="alpha40" width="38" height="1"/>
	<path d="M 135.999,205.006L 134.999,205.006L 134.999,204.006L 135.999,204.006M 130.999,205.006L 129.999,205.006L 129.999,204.006L 130.999,204.006M 136.531,202.164L 137.835,200.86C 138.03,200.664 138.03,200.348 137.835,200.152C 137.64,199.957 137.323,199.957 137.128,200.152L 135.651,201.63C 134.85,201.234 133.952,201.006 132.999,201.006C 132.041,201.006 131.139,201.237 130.336,201.635L 128.853,200.152C 128.657,199.957 128.341,199.957 128.145,200.152C 127.95,200.348 127.95,200.664 128.145,200.86L 129.457,202.171C 127.969,203.263 126.999,205.019 126.999,207.006L 138.999,207.006C 138.999,205.015 138.025,203.255 136.531,202.164 Z M 141.499,208.006C 140.671,208.006 139.999,208.677 139.999,209.506L 139.999,216.506C 139.999,217.335 140.671,218.006 141.499,218.006C 142.327,218.006 142.999,217.335 142.999,216.506L 142.999,209.506C 142.999,208.677 142.327,208.006 141.499,208.006 Z M 124.499,208.006C 123.671,208.006 122.999,208.677 122.999,209.506L 122.999,216.506C 122.999,217.335 123.671,218.006 124.499,218.006C 125.327,218.006 125.999,217.335 125.999,216.506L 125.999,209.506C 125.999,208.677 125.327,208.006 124.499,208.006 Z M 126.999,218.006C 126.999,218.557 127.448,219.006 127.999,219.006L 128.999,219.006L 128.999,222.506C 128.999,223.335 129.671,224.006 130.499,224.006C 131.327,224.006 131.999,223.335 131.999,222.506L 131.999,219.006L 133.999,219.006L 133.999,222.506C 133.999,223.335 134.671,224.006 135.499,224.006C 136.327,224.006 136.999,223.335 136.999,222.506L 136.999,219.006L 137.999,219.006C 138.55,219.006 138.999,218.557 138.999,218.006L 138.999,208.006L 126.999,208.006L 126.999,218.006 Z"/>
	<path d="M 159.471,219.124L 159.813,220.261L 159.88,220.261L 160.221,219.124L 165.344,204.968L 166.866,204.968L 160.503,222.008L 159.179,222.008L 152.815,204.968L 154.338,204.968L 159.471,219.124 Z"/>
	<path d="M 173.931,222.248C 172.344,222.248 171.025,221.661 169.975,220.486C 168.925,219.311 168.4,217.822 168.4,216.019L 168.4,215.371C 168.4,213.553 168.921,212.045 169.964,210.846C 171.006,209.648 172.27,209.048 173.755,209.048C 175.31,209.048 176.533,209.549 177.423,210.55C 178.313,211.551 178.758,212.886 178.758,214.553L 178.758,215.768L 169.806,215.768L 169.806,216.102C 169.806,217.509 170.185,218.686 170.943,219.631C 171.7,220.576 172.696,221.048 173.931,221.048C 174.806,221.048 175.552,220.927 176.168,220.684C 176.784,220.442 177.311,220.094 177.749,219.642L 178.349,220.602C 177.871,221.104 177.268,221.504 176.538,221.802C 175.808,222.099 174.939,222.248 173.931,222.248 Z M 173.755,210.248C 172.715,210.248 171.844,210.653 171.141,211.463C 170.439,212.273 170.029,213.288 169.911,214.508L 169.934,214.568L 177.363,214.568L 177.363,214.208C 177.363,213.083 177.038,212.142 176.389,211.384C 175.741,210.627 174.863,210.248 173.755,210.248 Z"/>
	<path d="M 186.231,221.048C 187.161,221.048 187.982,220.784 188.693,220.255C 189.404,219.726 189.76,218.992 189.76,218.052L 191.001,218.052L 191.024,218.123C 191.064,219.296 190.595,220.276 189.617,221.065C 188.64,221.854 187.511,222.248 186.231,222.248C 184.504,222.248 183.169,221.654 182.228,220.467C 181.287,219.279 180.816,217.753 180.816,215.888L 180.816,215.397C 180.816,213.547 181.289,212.026 182.234,210.835C 183.179,209.644 184.508,209.048 186.22,209.048C 187.61,209.048 188.768,209.458 189.694,210.278C 190.621,211.098 191.068,212.176 191.035,213.511L 191.012,213.582L 189.76,213.582C 189.76,212.567 189.418,211.758 188.734,211.154C 188.051,210.55 187.213,210.248 186.22,210.248C 184.86,210.248 183.854,210.735 183.201,211.709C 182.549,212.683 182.222,213.909 182.222,215.389L 182.222,215.884C 182.222,217.387 182.547,218.623 183.196,219.593C 183.844,220.563 184.856,221.048 186.231,221.048 Z"/>
	<path d="M 196.334,205.928L 196.334,209.288L 199.124,209.288L 199.124,210.488L 196.334,210.488L 196.334,218.761C 196.334,219.591 196.484,220.179 196.786,220.527C 197.087,220.874 197.488,221.048 197.988,221.048C 198.215,221.048 198.436,221.039 198.649,221.02C 198.863,221.001 199.111,220.968 199.394,220.921L 199.604,221.941C 199.369,222.038 199.084,222.114 198.749,222.168C 198.414,222.221 198.078,222.248 197.74,222.248C 196.85,222.248 196.157,221.968 195.661,221.406C 195.164,220.845 194.916,219.956 194.916,218.738L 194.916,210.488L 192.726,210.488L 192.726,209.288L 194.916,209.288L 194.916,205.928L 196.334,205.928 Z"/>
	<path d="M 201.385,215.453C 201.385,213.581 201.897,212.045 202.921,210.846C 203.944,209.648 205.3,209.048 206.988,209.048C 208.682,209.048 210.042,209.648 211.066,210.846C 212.089,212.045 212.601,213.581 212.601,215.453L 212.601,215.843C 212.601,217.723 212.091,219.261 211.071,220.456C 210.051,221.651 208.698,222.248 207.01,222.248C 205.307,222.248 203.944,221.651 202.921,220.456C 201.897,219.261 201.385,217.723 201.385,215.843L 201.385,215.453 Z M 202.791,215.836C 202.791,217.308 203.162,218.545 203.905,219.546C 204.648,220.548 205.682,221.048 207.01,221.048C 208.315,221.048 209.341,220.548 210.087,219.546C 210.833,218.545 211.206,217.308 211.206,215.836L 211.206,215.449C 211.206,214.002 210.831,212.773 210.081,211.763C 209.331,210.753 208.3,210.248 206.988,210.248C 205.675,210.248 204.648,210.753 203.905,211.763C 203.162,212.773 202.791,214.002 202.791,215.449L 202.791,215.836 Z"/>
	<path d="M 220.488,210.319L 219.445,210.248C 218.563,210.248 217.838,210.501 217.272,211.006C 216.706,211.511 216.301,212.206 216.059,213.091L 216.059,222.008L 214.653,222.008L 214.653,209.288L 215.883,209.288L 216.059,211.399L 216.059,211.542C 216.426,210.757 216.918,210.145 217.534,209.706C 218.151,209.268 218.885,209.048 219.738,209.048C 219.918,209.048 220.091,209.06 220.259,209.084C 220.426,209.108 220.565,209.133 220.675,209.161L 220.488,210.319 Z"/>
	<path d="M 229.439,222.008L 229.439,204.968L 234.396,204.968C 236.481,204.968 238.204,205.663 239.564,207.051C 240.924,208.44 241.604,210.223 241.604,212.401L 241.604,214.587C 241.604,216.772 240.924,218.555 239.564,219.936C 238.204,221.318 236.481,222.008 234.396,222.008L 229.439,222.008 Z M 230.834,206.168L 230.834,220.808L 234.396,220.808C 236.084,220.808 237.473,220.22 238.563,219.044C 239.653,217.868 240.198,216.379 240.198,214.579L 240.198,212.359C 240.198,210.584 239.651,209.109 238.557,207.933C 237.463,206.756 236.076,206.168 234.396,206.168L 230.834,206.168 Z"/>
	<path d="M 250.248,210.319L 249.205,210.248C 248.323,210.248 247.598,210.501 247.032,211.006C 246.466,211.511 246.061,212.206 245.819,213.091L 245.819,222.008L 244.413,222.008L 244.413,209.288L 245.643,209.288L 245.819,211.399L 245.819,211.542C 246.186,210.757 246.678,210.145 247.294,209.706C 247.911,209.268 248.645,209.048 249.498,209.048C 249.678,209.048 249.851,209.06 250.019,209.084C 250.186,209.108 250.325,209.133 250.435,209.161L 250.248,210.319 Z"/>
	<path d="M 261.678,222.008C 261.585,221.576 261.519,221.203 261.481,220.889C 261.442,220.575 261.423,220.257 261.423,219.934C 260.953,220.599 260.327,221.151 259.546,221.59C 258.764,222.029 257.886,222.248 256.911,222.248C 255.676,222.248 254.717,221.922 254.033,221.269C 253.349,220.617 253.008,219.744 253.008,218.652C 253.008,217.487 253.513,216.555 254.524,215.856C 255.536,215.158 256.901,214.808 258.621,214.808L 261.423,214.808L 261.423,213.207C 261.423,212.284 261.131,211.561 260.549,211.036C 259.966,210.511 259.151,210.248 258.104,210.248C 257.129,210.248 256.319,210.499 255.674,211.002C 255.029,211.504 254.706,212.118 254.706,212.843L 253.416,212.832L 253.394,212.761C 253.346,211.801 253.778,210.942 254.688,210.184C 255.598,209.427 256.756,209.048 258.164,209.048C 259.561,209.048 260.686,209.405 261.539,210.119C 262.391,210.833 262.818,211.856 262.818,213.188L 262.818,219.443C 262.818,219.891 262.842,220.326 262.893,220.75C 262.943,221.174 263.026,221.593 263.144,222.008L 261.678,222.008 Z M 257.073,221.048C 258.08,221.048 258.971,220.807 259.744,220.324C 260.518,219.842 261.078,219.227 261.423,218.479L 261.423,216.008L 258.599,216.008C 257.324,216.008 256.306,216.273 255.544,216.803C 254.783,217.333 254.403,217.991 254.403,218.776C 254.403,219.446 254.639,219.992 255.111,220.414C 255.584,220.837 256.238,221.048 257.073,221.048 Z"/>
	<path d="M 269.223,217.887L 269.703,220.156L 269.774,220.156L 270.37,217.887L 273.066,209.288L 274.274,209.288L 276.97,217.887L 277.578,220.216L 277.649,220.216L 278.174,217.887L 280.484,209.288L 281.939,209.288L 278.245,222.008L 277.049,222.008L 274.236,213.304L 273.689,211.103L 273.618,211.103L 273.055,213.304L 270.288,222.008L 269.08,222.008L 265.401,209.288L 266.856,209.288L 269.223,217.887 Z"/>
	<path d="M 292.878,222.008C 292.785,221.576 292.719,221.203 292.681,220.889C 292.642,220.575 292.623,220.257 292.623,219.934C 292.153,220.599 291.527,221.151 290.746,221.59C 289.964,222.029 289.086,222.248 288.111,222.248C 286.876,222.248 285.917,221.922 285.233,221.269C 284.549,220.617 284.208,219.744 284.208,218.652C 284.208,217.487 284.713,216.555 285.724,215.856C 286.736,215.158 288.101,214.808 289.821,214.808L 292.623,214.808L 292.623,213.207C 292.623,212.284 292.331,211.561 291.749,211.036C 291.166,210.511 290.351,210.248 289.304,210.248C 288.329,210.248 287.519,210.499 286.874,211.002C 286.229,211.504 285.906,212.118 285.906,212.843L 284.616,212.832L 284.594,212.761C 284.546,211.801 284.978,210.942 285.888,210.184C 286.798,209.427 287.956,209.048 289.364,209.048C 290.761,209.048 291.886,209.405 292.739,210.119C 293.591,210.833 294.018,211.856 294.018,213.188L 294.018,219.443C 294.018,219.891 294.043,220.326 294.093,220.75C 294.143,221.174 294.226,221.593 294.344,222.008L 292.878,222.008 Z M 288.273,221.048C 289.28,221.048 290.171,220.807 290.944,220.324C 291.718,219.842 292.278,219.227 292.623,218.479L 292.623,216.008L 289.799,216.008C 288.524,216.008 287.506,216.273 286.744,216.803C 285.983,217.333 285.603,217.991 285.603,218.776C 285.603,219.446 285.839,219.992 286.311,220.414C 286.784,220.837 287.438,221.048 288.273,221.048 Z"/>
	<path d="M 307.551,215.993C 307.551,217.898 307.121,219.417 306.261,220.549C 305.401,221.682 304.218,222.248 302.71,222.248C 301.78,222.248 300.979,222.062 300.308,221.689C 299.637,221.317 299.094,220.782 298.679,220.084L 298.529,222.008L 297.321,222.008L 297.321,203.768L 298.728,203.768L 298.728,211.283C 299.148,210.571 299.686,210.02 300.342,209.631C 300.998,209.243 301.78,209.048 302.688,209.048C 304.21,209.048 305.401,209.658 306.261,210.876C 307.121,212.095 307.551,213.719 307.551,215.749L 307.551,215.993 Z M 306.134,215.749C 306.134,214.119 305.821,212.795 305.196,211.776C 304.571,210.758 303.645,210.248 302.418,210.248C 301.44,210.248 300.653,210.492 300.055,210.979C 299.458,211.467 299.015,212.093 298.728,212.858L 298.728,218.629C 299.04,219.369 299.507,219.958 300.128,220.394C 300.749,220.83 301.52,221.048 302.44,221.048C 303.668,221.048 304.59,220.592 305.208,219.679C 305.825,218.767 306.134,217.539 306.134,215.997L 306.134,215.749 Z"/>
	<rect height="18.24" width="1.39499" x="311.309" y="203.768"/>
	<path d="M 321.291,222.248C 319.704,222.248 318.385,221.661 317.335,220.486C 316.285,219.311 315.76,217.822 315.76,216.019L 315.76,215.371C 315.76,213.553 316.281,212.045 317.324,210.846C 318.366,209.648 319.63,209.048 321.115,209.048C 322.67,209.048 323.893,209.549 324.783,210.55C 325.673,211.551 326.118,212.886 326.118,214.553L 326.118,215.768L 317.166,215.768L 317.166,216.102C 317.166,217.509 317.545,218.686 318.303,219.631C 319.06,220.576 320.056,221.048 321.291,221.048C 322.166,221.048 322.912,220.927 323.528,220.684C 324.144,220.442 324.671,220.094 325.109,219.642L 325.709,220.602C 325.231,221.104 324.628,221.504 323.898,221.802C 323.168,222.099 322.299,222.248 321.291,222.248 Z M 321.115,210.248C 320.075,210.248 319.204,210.653 318.501,211.463C 317.799,212.273 317.389,213.288 317.271,214.508L 317.294,214.568L 324.723,214.568L 324.723,214.208C 324.723,213.083 324.398,212.142 323.749,211.384C 323.101,210.627 322.223,210.248 321.115,210.248 Z"/>
	<path d="M 336.726,218.761C 336.726,218.168 336.482,217.649 335.993,217.204C 335.504,216.759 334.624,216.396 333.351,216.113C 331.836,215.783 330.717,215.348 329.993,214.808C 329.269,214.268 328.908,213.504 328.908,212.517C 328.908,211.544 329.316,210.723 330.134,210.053C 330.951,209.383 332.031,209.048 333.374,209.048C 334.804,209.048 335.937,209.401 336.773,210.108C 337.609,210.814 338.008,211.698 337.968,212.761L 337.945,212.832L 336.644,212.832C 336.644,212.139 336.349,211.536 335.759,211.021C 335.169,210.506 334.374,210.248 333.374,210.248C 332.351,210.248 331.584,210.468 331.071,210.908C 330.559,211.348 330.303,211.864 330.303,212.457C 330.303,213.042 330.523,213.526 330.964,213.908C 331.406,214.291 332.288,214.626 333.61,214.913C 335.118,215.251 336.246,215.713 336.996,216.299C 337.746,216.885 338.121,217.681 338.121,218.686C 338.121,219.748 337.693,220.608 336.837,221.264C 335.981,221.92 334.85,222.248 333.445,222.248C 331.905,222.248 330.696,221.881 329.817,221.146C 328.938,220.411 328.523,219.536 328.57,218.521L 328.593,218.449L 329.883,218.449C 329.938,219.359 330.311,220.02 331.002,220.431C 331.693,220.843 332.508,221.048 333.445,221.048C 334.46,221.048 335.261,220.826 335.847,220.381C 336.433,219.936 336.726,219.396 336.726,218.761 Z"/>
<!--xaml-->
	<rect x="359" y="193.008" class="alpha40" width="1" height="38"/>
	<rect x="384" y="193.008" class="alpha40" width="1" height="38"/>
	<rect x="353" y="199.008" class="alpha40" width="38" height="1"/>
	<rect x="353" y="224.008" class="alpha40" width="38" height="1"/>
	<path d="M 363,212.008L 363,206.758L 369,205.435L 369,211.92L 363,212.008 Z M 380,203.008L 380,211.758L 370,211.905L 370,205.214L 380,203.008 Z M 363,213.008L 369,213.096L 369,219.905L 363,218.758L 363,213.008 Z M 380,213.258L 380,222.008L 370,220.096L 370,213.111L 380,213.258 Z"/>
	<path d="M 398.481,212.247L 403.296,204.968L 404.995,204.968L 399.325,213.372L 405.183,222.008L 403.506,222.008L 398.504,214.497L 393.513,222.008L 391.81,222.008L 397.671,213.372L 391.986,204.968L 393.685,204.968L 398.481,212.247 Z"/>
	<path d="M 417.164,217.208L 409.345,217.208L 407.59,222.008L 406.135,222.008L 412.615,204.968L 413.939,204.968L 420.374,222.008L 418.919,222.008L 417.164,217.208 Z M 409.814,216.008L 416.706,216.008L 413.309,206.783L 413.238,206.783L 409.814,216.008 Z"/>
	<path d="M 424.96,204.968L 431.226,219.968L 431.298,219.968L 437.59,204.968L 439.443,204.968L 439.443,222.008L 438.048,222.008L 438.048,214.482L 438.164,207.027L 438.096,207.004L 431.755,222.008L 430.784,222.008L 424.454,207.076L 424.383,207.087L 424.514,214.482L 424.514,222.008L 423.119,222.008L 423.119,204.968L 424.96,204.968 Z"/>
	<path d="M 444.565,220.808L 453.003,220.808L 453.003,222.008L 443.159,222.008L 443.159,204.968L 444.565,204.968L 444.565,220.808 Z"/>
<!--webfont-->
	<rect x="475" y="193.008" class="alpha40" width="1" height="38"/>
	<rect x="500" y="193.008" class="alpha40" width="1" height="38"/>
	<rect x="469" y="199.008" class="alpha40" width="38" height="1"/>
	<rect x="469" y="224.008" class="alpha40" width="38" height="1"/>
	<path d="M 479,213.008L 482,213.008L 482,220.008L 485,220.008L 485,213.008L 488,213.008L 488,210.008L 479,210.008M 485,205.008L 485,208.008L 490,208.008L 490,220.008L 493,220.008L 493,208.008L 498,208.008L 498,205.008L 485,205.008 Z"/>
	<path d="M 511.536,217.186L 512.05,219.796L 512.122,219.807L 512.766,217.186L 516.374,204.968L 517.698,204.968L 521.309,217.186L 521.931,219.818L 521.999,219.807L 522.55,217.186L 525.633,204.968L 527.061,204.968L 522.681,222.008L 521.354,222.008L 517.525,208.936L 517.079,207.147L 517.008,207.147L 516.573,208.936L 512.706,222.008L 511.371,222.008L 506.988,204.968L 508.431,204.968L 511.536,217.186 Z"/>
	<path d="M 534.411,222.248C 532.824,222.248 531.505,221.661 530.455,220.486C 529.405,219.311 528.88,217.822 528.88,216.019L 528.88,215.371C 528.88,213.553 529.401,212.045 530.444,210.846C 531.487,209.648 532.75,209.048 534.235,209.048C 535.79,209.048 537.013,209.549 537.903,210.55C 538.793,211.551 539.238,212.886 539.238,214.553L 539.238,215.768L 530.286,215.768L 530.286,216.102C 530.286,217.509 530.665,218.686 531.423,219.631C 532.18,220.576 533.176,221.048 534.411,221.048C 535.286,221.048 536.032,220.927 536.648,220.684C 537.265,220.442 537.792,220.094 538.229,219.642L 538.829,220.602C 538.352,221.104 537.748,221.504 537.018,221.802C 536.288,222.099 535.419,222.248 534.411,222.248 Z M 534.235,210.248C 533.195,210.248 532.324,210.653 531.622,211.463C 530.919,212.273 530.509,213.288 530.391,214.508L 530.414,214.568L 537.843,214.568L 537.843,214.208C 537.843,213.083 537.518,212.142 536.87,211.384C 536.221,210.627 535.343,210.248 534.235,210.248 Z"/>
	<path d="M 552.112,215.993C 552.112,217.898 551.681,219.417 550.821,220.549C 549.961,221.682 548.778,222.248 547.27,222.248C 546.34,222.248 545.54,222.062 544.868,221.689C 544.197,221.317 543.654,220.782 543.239,220.084L 543.089,222.008L 541.882,222.008L 541.882,203.768L 543.288,203.768L 543.288,211.283C 543.708,210.571 544.246,210.02 544.902,209.631C 545.558,209.243 546.34,209.048 547.248,209.048C 548.77,209.048 549.961,209.658 550.821,210.876C 551.681,212.095 552.112,213.719 552.112,215.749L 552.112,215.993 Z M 550.694,215.749C 550.694,214.119 550.382,212.795 549.757,211.776C 549.132,210.758 548.205,210.248 546.978,210.248C 546,210.248 545.213,210.492 544.615,210.979C 544.018,211.467 543.575,212.093 543.288,212.858L 543.288,218.629C 543.6,219.369 544.067,219.958 544.688,220.394C 545.31,220.83 546.08,221.048 547,221.048C 548.228,221.048 549.15,220.592 549.768,219.679C 550.385,218.767 550.694,217.539 550.694,215.997L 550.694,215.749 Z"/>
	<path d="M 556.113,222.008L 556.113,210.488L 554.013,210.488L 554.013,209.288L 556.113,209.288L 556.113,207.466C 556.113,206.211 556.431,205.241 557.067,204.556C 557.703,203.871 558.595,203.528 559.743,203.528C 560.003,203.528 560.265,203.547 560.53,203.584C 560.795,203.622 561.064,203.676 561.336,203.746L 561.164,204.882C 560.977,204.834 560.783,204.797 560.583,204.769C 560.383,204.742 560.15,204.728 559.885,204.728C 559.12,204.728 558.535,204.968 558.128,205.446C 557.722,205.925 557.519,206.596 557.519,207.458L 557.519,209.288L 560.541,209.288L 560.541,210.488L 557.519,210.488L 557.519,222.008L 556.113,222.008 Z"/>
	<path d="M 562.825,215.453C 562.825,213.581 563.337,212.045 564.361,210.846C 565.385,209.648 566.74,209.048 568.428,209.048C 570.123,209.048 571.482,209.648 572.506,210.846C 573.53,212.045 574.041,213.581 574.041,215.453L 574.041,215.843C 574.041,217.723 573.531,219.261 572.511,220.456C 571.491,221.651 570.138,222.248 568.45,222.248C 566.748,222.248 565.385,221.651 564.361,220.456C 563.337,219.261 562.825,217.723 562.825,215.843L 562.825,215.453 Z M 564.231,215.836C 564.231,217.308 564.603,218.545 565.345,219.546C 566.088,220.548 567.123,221.048 568.45,221.048C 569.755,221.048 570.781,220.548 571.527,219.546C 572.273,218.545 572.646,217.308 572.646,215.836L 572.646,215.449C 572.646,214.002 572.271,212.773 571.521,211.763C 570.771,210.753 569.74,210.248 568.428,210.248C 567.115,210.248 566.088,210.753 565.345,211.763C 564.603,212.773 564.231,214.002 564.231,215.449L 564.231,215.836 Z"/>
	<path d="M 578.174,209.288L 578.301,211.504C 578.709,210.722 579.258,210.117 579.95,209.689C 580.641,209.262 581.459,209.048 582.404,209.048C 583.779,209.048 584.826,209.469 585.545,210.312C 586.263,211.154 586.623,212.469 586.623,214.257L 586.623,222.008L 585.216,222.008L 585.216,214.253C 585.216,212.793 584.945,211.761 584.403,211.156C 583.86,210.551 583.089,210.248 582.089,210.248C 581.104,210.248 580.301,210.509 579.68,211.032C 579.058,211.554 578.611,212.248 578.339,213.113L 578.339,222.008L 576.933,222.008L 576.933,209.288L 578.174,209.288 Z"/>
	<path d="M 592.574,205.928L 592.574,209.288L 595.364,209.288L 595.364,210.488L 592.574,210.488L 592.574,218.761C 592.574,219.591 592.725,220.179 593.026,220.527C 593.327,220.874 593.728,221.048 594.228,221.048C 594.455,221.048 594.676,221.039 594.89,221.02C 595.103,221.001 595.351,220.968 595.634,220.921L 595.844,221.941C 595.609,222.038 595.324,222.114 594.989,222.168C 594.654,222.221 594.318,222.248 593.98,222.248C 593.09,222.248 592.397,221.968 591.901,221.406C 591.405,220.845 591.156,219.956 591.156,218.738L 591.156,210.488L 588.966,210.488L 588.966,209.288L 591.156,209.288L 591.156,205.928L 592.574,205.928 Z"/>
<!--cdn-->
	<rect x="623" y="193.008" class="alpha40" width="1" height="38"/>
	<rect x="648" y="193.008" class="alpha40" width="1" height="38"/>
	<rect x="617" y="199.008" class="alpha40" width="38" height="1"/>
	<rect x="617" y="224.008" class="alpha40" width="38" height="1"/>
	<path d="M 644.596,206.697C 643.726,205.622 642.381,205.008 640.903,205.008L 626.954,205.008L 628.622,208.583L 626.393,219.008L 630.047,219.008L 632.278,208.583L 635.4,208.581L 633.172,219.008L 636.826,219.008L 639.055,208.581L 640.903,208.581C 641.303,208.581 641.628,208.711 641.816,208.945C 642.007,209.179 642.066,209.523 641.982,209.913L 640.036,219.008L 643.69,219.008L 645.477,210.66C 645.785,209.214 645.463,207.769 644.596,206.697 Z"/>
	<path d="M 668.032,216.668L 668.058,216.739C 667.908,218.449 667.298,219.795 666.228,220.776C 665.158,221.758 663.724,222.248 661.927,222.248C 660.029,222.248 658.498,221.564 657.335,220.195C 656.171,218.826 655.589,217.054 655.589,214.879L 655.589,212.108C 655.589,209.941 656.171,208.169 657.335,206.793C 658.498,205.416 660.029,204.728 661.927,204.728C 663.739,204.728 665.177,205.209 666.239,206.17C 667.302,207.131 667.908,208.482 668.058,210.222L 668.032,210.293L 666.719,210.293C 666.532,208.881 666.045,207.8 665.26,207.051C 664.475,206.303 663.364,205.928 661.927,205.928C 660.434,205.928 659.237,206.504 658.334,207.657C 657.432,208.809 656.98,210.284 656.98,212.082L 656.98,214.872C 656.98,216.694 657.432,218.179 658.334,219.327C 659.237,220.474 660.434,221.048 661.927,221.048C 663.364,221.048 664.477,220.682 665.266,219.949C 666.055,219.217 666.539,218.123 666.719,216.668L 668.032,216.668 Z"/>
	<path d="M 671.279,222.008L 671.279,204.968L 676.237,204.968C 678.322,204.968 680.044,205.663 681.404,207.051C 682.764,208.44 683.444,210.223 683.444,212.401L 683.444,214.587C 683.444,216.772 682.764,218.555 681.404,219.936C 680.044,221.318 678.322,222.008 676.237,222.008L 671.279,222.008 Z M 672.674,206.168L 672.674,220.808L 676.237,220.808C 677.924,220.808 679.313,220.22 680.403,219.044C 681.493,217.868 682.038,216.379 682.038,214.579L 682.038,212.359C 682.038,210.584 681.491,209.109 680.397,207.933C 679.303,206.756 677.917,206.168 676.237,206.168L 672.674,206.168 Z"/>
	<path d="M 698.548,222.008L 697.153,222.008L 687.463,207.357L 687.392,207.368L 687.392,222.008L 685.986,222.008L 685.986,204.968L 687.392,204.968L 697.082,219.593L 697.153,219.582L 697.153,204.968L 698.548,204.968L 698.548,222.008 Z"/>
<!--l-->
	<rect x="868" y="193.008" class="alpha40" width="1" height="38"/>
	<rect x="893" y="193.008" class="alpha40" width="1" height="38"/>
	<rect x="862" y="199.008" class="alpha40" width="38" height="1"/>
	<rect x="862" y="224.008" class="alpha40" width="38" height="1"/>
	<path d="M 875,209.008L 875,204.008L 882,204.008L 882,209.008L 892,209.008L 892,216.008L 887,216.008L 887,221.008L 880,221.008L 880,216.008L 870,216.008L 870,209.008L 875,209.008 Z M 885,216.008L 882,216.008L 882,219.008L 885,219.008L 885,216.008 Z M 877,209.008L 880,209.008L 880,206.008L 877,206.008L 877,209.008 Z M 875,214.008L 875,211.008L 872,211.008L 872,214.008L 875,214.008 Z M 887,211.008L 887,214.008L 890,214.008L 890,211.008L 887,211.008 Z M 882,211.008L 882,214.008L 885,214.008L 885,211.008L 882,211.008 Z M 877,211.008L 877,214.008L 880,214.008L 880,211.008L 877,211.008 Z"/>
<!--g-->
	<rect x="912" y="193.008" class="alpha40" width="1" height="38"/>
	<rect x="937" y="193.008" class="alpha40" width="1" height="38"/>
	<rect x="906" y="199.008" class="alpha40" width="38" height="1"/>
	<rect x="906" y="224.008" class="alpha40" width="38" height="1"/>
	<path d="M 924.999,202.008C 919.478,202.008 915,206.485 915,212.009C 915,216.427 917.865,220.175 921.839,221.497C 922.339,221.589 922.521,221.28 922.521,221.015C 922.521,220.778 922.513,220.149 922.508,219.314C 919.726,219.919 919.139,217.974 919.139,217.974C 918.685,216.819 918.029,216.511 918.029,216.511C 917.121,215.891 918.098,215.903 918.098,215.903C 919.102,215.974 919.629,216.934 919.629,216.934C 920.521,218.462 921.97,218.021 922.54,217.765C 922.631,217.118 922.889,216.678 923.175,216.428C 920.954,216.175 918.62,215.317 918.62,211.485C 918.62,210.394 919.009,209.501 919.649,208.802C 919.546,208.549 919.203,207.532 919.747,206.156C 919.747,206.156 920.586,205.887 922.497,207.181C 923.294,206.959 924.15,206.848 925,206.844C 925.85,206.848 926.705,206.959 927.504,207.181C 929.413,205.887 930.251,206.156 930.251,206.156C 930.797,207.532 930.454,208.549 930.351,208.802C 930.992,209.501 931.379,210.394 931.379,211.485C 931.379,215.327 929.04,216.172 926.813,216.42C 927.172,216.729 927.492,217.339 927.492,218.272C 927.492,219.609 927.479,220.687 927.479,221.015C 927.479,221.283 927.66,221.594 928.167,221.496C 932.137,220.171 935,216.425 935,212.009C 935,206.485 930.522,202.008 924.999,202.008 Z"/>
	<script>{

	}</script>
</svg>