<?xml version="1.0" encoding="UTF-8"?>
<!DOCTYPE svg PUBLIC "-//W3C//DTD SVG 1.1//EN" "http://www.w3.org/Graphics/SVG/1.1/DTD/svg11.dtd">
<svg height="24" viewBox="0 0 24 24" width="24" xmlns="http://www.w3.org/2000/svg">
	<path d="M17.015625,2.015625L17.015625,5.015625L14.015625,5.015625L14.015625,6.984375L17.015625,6.984375L17.015625,9.984375L18.984375,9.984375L18.984375,6.984375L21.984375,6.984375L21.984375,5.015625L18.984375,5.015625L18.984375,2.015625L17.015625,2.015625ZM5.015625,5.015625C4.484375,5.015625 4.015625,5.2109375 3.609375,5.6015625C3.203125,5.9921875 3,6.453125 3,6.984375L3,18.984375C3,19.515625 3.203125,19.984375 3.609375,20.390625C4.015625,20.796875 4.484375,21 5.015625,21L17.015625,21C17.546875,21 18.007812,20.796875 18.398438,20.390625C18.789062,19.984375 18.984375,19.515625 18.984375,18.984375L18.984375,11.015625L15.984375,11.015625L15.984375,8.015625L12.984375,8.015625L12.984375,5.015625L5.015625,5.015625ZM12.984375,14.015625L17.015625,18.984375L5.015625,18.984375L8.015625,15L9.984375,18L12.984375,14.015625Z"/>
</svg>
