<?xml version="1.0" encoding="UTF-8"?>
<!DOCTYPE svg PUBLIC "-//W3C//DTD SVG 1.1//EN" "http://www.w3.org/Graphics/SVG/1.1/DTD/svg11.dtd">
<svg height="24" viewBox="0 0 24 24" width="24" xmlns="http://www.w3.org/2000/svg">
	<path d="M5.015625,3C4.484375,3 4.015625,3.203125 3.609375,3.609375C3.203125,4.015625 3,4.484375 3,5.015625L3,18.984375C3,19.515625 3.203125,19.984375 3.609375,20.390625C4.015625,20.796875 4.484375,21 5.015625,21L18.984375,21C19.515625,21 19.984375,20.796875 20.390625,20.390625C20.796875,19.984375 21,19.515625 21,18.984375L21,5.015625C21,4.484375 20.796875,4.015625 20.390625,3.609375C19.984375,3.203125 19.515625,3 18.984375,3L5.015625,3ZM9,5.015625L11.015625,5.015625L11.015625,9L18.984375,9L18.984375,11.015625L11.015625,11.015625L11.015625,18.984375L9,18.984375L9,11.015625L5.015625,11.015625L5.015625,9L9,9L9,5.015625Z"/>
</svg>