<?xml version="1.0" encoding="UTF-8"?>
<!DOCTYPE svg PUBLIC "-//W3C//DTD SVG 1.1//EN" "http://www.w3.org/Graphics/SVG/1.1/DTD/svg11.dtd">
<svg height="24" viewBox="0 0 24 24" width="24" xmlns="http://www.w3.org/2000/svg">
	<path d="M11.015625 0.984375C10.484375 0.984375 10.015625 1.1875 9.609375 1.59375C9.203125 2 9 2.46875 9 3L9 3.75C8.40625 3.25 7.828125 3 7.265625 3C6.453125 3 5.75 3.296875 5.15625 3.890625C4.5625 4.484375 4.265625 5.1875 4.265625 6C4.265625 6.8125 4.5625 7.515625 5.15625 8.109375C5.75 8.703125 6.453125 9 7.265625 9L9 9L9 15.328125L4.453125 14.34375L4.125 14.34375C3.6875 14.34375 3.328125 14.484375 3.046875 14.765625L2.015625 15.84375L8.578125 22.40625C8.984375 22.8125 9.453125 23.015625 9.984375 23.015625L17.578125 23.015625C18.046875 23.015625 18.46875 22.84375 18.84375 22.5C19.21875 22.15625 19.4375 21.75 19.5 21.28125L20.484375 14.53125C20.484375 14.5 20.492188 14.453125 20.507812 14.390625C20.523438 14.328125 20.53125 14.28125 20.53125 14.25C20.53125 13.34375 20.125 12.734375 19.3125 12.421875L14.71875 10.125C14.46875 10.03125 14.234375 9.984375 14.015625 9.984375L12.984375 9.984375L12.984375 9L14.765625 9C15.578125 9 16.28125 8.703125 16.875 8.109375C17.46875 7.515625 17.765625 6.8125 17.765625 6C17.765625 5.1875 17.46875 4.484375 16.875 3.890625C16.28125 3.296875 15.578125 3 14.765625 3C14.171875 3 13.578125 3.25 12.984375 3.75L12.984375 3C12.984375 2.46875 12.789062 2 12.398438 1.59375C12.007812 1.1875 11.546875 0.984375 11.015625 0.984375ZM7.265625 4.265625C7.734375 4.265625 8.140625 4.4375 8.484375 4.78125C8.828125 5.125 9 5.53125 9 6L9 7.734375L7.265625 7.734375C6.796875 7.734375 6.3828125 7.5625 6.0234375 7.21875C5.6640625 6.875 5.484375 6.46875 5.484375 6C5.484375 5.53125 5.6640625 5.125 6.0234375 4.78125C6.3828125 4.4375 6.796875 4.265625 7.265625 4.265625ZM14.765625 4.265625C15.234375 4.265625 15.640625 4.4375 15.984375 4.78125C16.328125 5.125 16.5 5.53125 16.5 6C16.5 6.46875 16.328125 6.875 15.984375 7.21875C15.640625 7.5625 15.234375 7.734375 14.765625 7.734375L12.984375 7.734375L12.984375 6C12.984375 5.53125 13.164062 5.125 13.523438 4.78125C13.882812 4.4375 14.296875 4.265625 14.765625 4.265625Z"/>
</svg>