<?xml version="1.0" encoding="UTF-8"?>
<!DOCTYPE svg PUBLIC "-//W3C//DTD SVG 1.1//EN" "http://www.w3.org/Graphics/SVG/1.1/DTD/svg11.dtd">
<svg height="24" viewBox="0 0 24 24" width="24" xmlns="http://www.w3.org/2000/svg">
	<path d="M11.015625 0C10.484375 0 10.015625 0.203125 9.609375 0.609375C9.203125 1.015625 9 1.484375 9 2.015625L9 2.765625C8.40625 2.265625 7.828125 2.015625 7.265625 2.015625C6.453125 2.015625 5.75 2.3125 5.15625 2.90625C4.5625 3.5 4.265625 4.203125 4.265625 5.015625C4.265625 5.828125 4.5625 6.53125 5.15625 7.125C5.75 7.71875 6.453125 8.015625 7.265625 8.015625L9 8.015625L9 16.3125L4.453125 15.375C4.421875 15.375 4.3671875 15.367188 4.2890625 15.351562C4.2109375 15.335938 4.15625 15.328125 4.125 15.328125C3.6875 15.328125 3.328125 15.46875 3.046875 15.75L2.015625 16.828125L8.578125 23.4375C8.953125 23.8125 9.421875 24 9.984375 24L19.078125 24C19.578125 24 20.007812 23.835938 20.367188 23.507812C20.726562 23.179688 20.9375 22.78125 21 22.3125L21.984375 15.28125L21.984375 15C21.984375 14.09375 21.578125 13.484375 20.765625 13.171875L14.71875 10.125C14.46875 10.03125 14.234375 9.984375 14.015625 9.984375L12.984375 9.984375L12.984375 8.015625L14.765625 8.015625C15.578125 8.015625 16.28125 7.71875 16.875 7.125C17.46875 6.53125 17.765625 5.828125 17.765625 5.015625C17.765625 4.203125 17.46875 3.5 16.875 2.90625C16.28125 2.3125 15.578125 2.015625 14.765625 2.015625C14.171875 2.015625 13.578125 2.265625 12.984375 2.765625L12.984375 2.015625C12.984375 1.484375 12.789062 1.015625 12.398438 0.609375C12.007812 0.203125 11.546875 0 11.015625 0ZM7.265625 3C7.796875 3 8.2578125 3.203125 8.6484375 3.609375C9.0390625 4.015625 9.234375 4.484375 9.234375 5.015625L9.234375 6.984375L7.265625 6.984375C6.734375 6.984375 6.265625 6.7890625 5.859375 6.3984375C5.453125 6.0078125 5.25 5.546875 5.25 5.015625C5.25 4.484375 5.453125 4.015625 5.859375 3.609375C6.265625 3.203125 6.734375 3 7.265625 3ZM14.765625 3C15.296875 3 15.757812 3.203125 16.148438 3.609375C16.539062 4.015625 16.734375 4.484375 16.734375 5.015625C16.734375 5.546875 16.539062 6.0078125 16.148438 6.3984375C15.757812 6.7890625 15.296875 6.984375 14.765625 6.984375L12.75 6.984375L12.75 5.015625C12.75 4.484375 12.953125 4.015625 13.359375 3.609375C13.765625 3.203125 14.234375 3 14.765625 3Z"/>
</svg>