<svg fill="#fff" height="240" width="960" xmlns="http://www.w3.org/2000/svg"><style>.a20{fill-opacity:.2}.a40{fill-opacity:.4}</style><path fill="#512da8" d="M0 0h960v240H0z"/><path d="M0 103V0h179L0 103zm820.37 414.8L1204 292.3 1058.06 44 674.43 269.5l145.94 248.3z" class="a20"/><path d="M254.02 118.1l.04.12c-.25 2.85-1.26 5.1-3.05 6.73-1.78 1.63-4.17 2.45-7.16 2.45a9.56 9.56 0 0 1-7.66-3.42c-1.94-2.28-2.9-5.24-2.9-8.86v-4.62c0-3.61.96-6.57 2.9-8.86a9.53 9.53 0 0 1 7.66-3.44c3.02 0 5.41.8 7.18 2.4 1.77 1.6 2.78 3.86 3.03 6.76l-.04.11h-2.19c-.3-2.35-1.12-4.15-2.43-5.4-1.3-1.25-3.16-1.87-5.55-1.87-2.5 0-4.49.96-6 2.88-1.5 1.92-2.25 4.38-2.25 7.38v4.65c0 3.03.75 5.5 2.26 7.42a7.24 7.24 0 0 0 5.99 2.87c2.4 0 4.25-.61 5.56-1.83 1.32-1.22 2.12-3.04 2.42-5.47h2.2zm4.26-2.02c0-3.13.85-5.69 2.56-7.68 1.7-2 3.96-3 6.78-3 2.82 0 5.08 1 6.8 3 1.7 2 2.55 4.55 2.55 7.67v.66c0 3.13-.85 5.7-2.55 7.68a8.46 8.46 0 0 1-6.77 2.99c-2.83 0-5.1-1-6.81-2.99-1.71-1.99-2.56-4.55-2.56-7.69v-.64zm2.34.63c0 2.46.62 4.52 1.86 6.19a6.08 6.08 0 0 0 5.17 2.5c2.18 0 3.89-.83 5.13-2.5a10.06 10.06 0 0 0 1.87-6.19v-.64a10 10 0 0 0-1.88-6.14 6.07 6.07 0 0 0-5.15-2.53c-2.2 0-3.9.84-5.14 2.52a10.09 10.09 0 0 0-1.86 6.15v.64zm23.34-10.91l.22 3.5a7.4 7.4 0 0 1 2.7-2.88 7.68 7.68 0 0 1 4.04-1.02c1.6 0 2.96.4 4.04 1.17a6.48 6.48 0 0 1 2.34 3.6 8.1 8.1 0 0 1 2.73-3.5 7.2 7.2 0 0 1 4.3-1.27c2.25 0 4 .75 5.22 2.25 1.22 1.5 1.83 3.83 1.83 6.98V127h-2.34v-12.43c0-2.62-.46-4.47-1.38-5.55a4.77 4.77 0 0 0-3.83-1.62c-1.81 0-3.22.57-4.2 1.7a8.11 8.11 0 0 0-1.84 4.39 12.07 12.07 0 0 0 .02.77V127h-2.36v-12.43c0-2.57-.47-4.4-1.4-5.51a4.75 4.75 0 0 0-3.84-1.66c-1.65 0-2.96.42-3.93 1.27a6.73 6.73 0 0 0-2.05 3.4V127h-2.36v-21.2h2.09zm35.6 0l.22 3.5a7.4 7.4 0 0 1 2.7-2.88 7.68 7.68 0 0 1 4.03-1.02c1.62 0 2.97.4 4.06 1.17a6.48 6.48 0 0 1 2.33 3.6 8.1 8.1 0 0 1 2.73-3.5 7.2 7.2 0 0 1 4.3-1.27c2.25 0 4 .75 5.22 2.25 1.22 1.5 1.83 3.83 1.83 6.98V127h-2.34v-12.43c0-2.62-.46-4.47-1.38-5.55a4.77 4.77 0 0 0-3.83-1.62c-1.81 0-3.22.57-4.2 1.7a8.11 8.11 0 0 0-1.84 4.39 12.07 12.07 0 0 0 .02.77V127h-2.36v-12.43c0-2.57-.47-4.4-1.4-5.51a4.75 4.75 0 0 0-3.84-1.66c-1.65 0-2.96.42-3.93 1.27a6.73 6.73 0 0 0-2.05 3.4V127h-2.36v-21.2h2.09zm47.27 17.73a7.29 7.29 0 0 1-2.73 2.86 7.89 7.89 0 0 1-4.06 1.01 6.45 6.45 0 0 1-5.24-2.27c-1.26-1.52-1.9-3.86-1.9-7.05V105.8h2.35v12.34c0 2.6.44 4.45 1.32 5.57a4.47 4.47 0 0 0 3.75 1.69c1.77 0 3.18-.4 4.23-1.2a6.23 6.23 0 0 0 2.2-3.3v-15.1h2.35V127h-2.07l-.2-3.47zm10.63-17.73l.21 3.7a7.58 7.58 0 0 1 2.75-3.03 7.62 7.62 0 0 1 4.09-1.07c2.29 0 4.04.7 5.23 2.1 1.2 1.41 1.8 3.6 1.8 6.58V127h-2.34v-12.92c0-2.44-.46-4.16-1.36-5.17-.9-1-2.19-1.51-3.86-1.51a6 6 0 0 0-4.01 1.3 7.26 7.26 0 0 0-2.24 3.47V127h-2.34v-21.2h2.07zM400.6 127h-2.32v-21.2h2.33V127zm0-27.2h-2.32v-3.2h2.33v3.2zm10.06.4v5.6h4.65v2h-4.65v13.79c0 1.38.25 2.36.75 2.94.5.58 1.17.87 2 .87a12.72 12.72 0 0 0 2.35-.21l.35 1.7c-.4.16-.87.29-1.43.38-.56.09-1.12.13-1.68.13a4.38 4.38 0 0 1-3.46-1.4c-.83-.94-1.24-2.42-1.24-4.45V107.8h-3.65v-2h3.65v-5.6h2.36zm15.52 20.97l.75 2.52h.12l6.38-17.89h2.62l-9.18 24.46a12.1 12.1 0 0 1-2.13 3.64c-.87 1-2.15 1.5-3.83 1.5a7.2 7.2 0 0 1-1.85-.26l.27-1.88a9.35 9.35 0 0 0 1.5.14c1.02 0 1.83-.36 2.44-1.08a9.6 9.6 0 0 0 1.57-2.79l1.11-2.86-8.17-20.87h2.6l5.8 15.38zm11.68-7.37h9.36v2h-9.36zm14.02-17.2h2.32V127h-2.32zm16.64 30.8a8.47 8.47 0 0 1-6.6-2.94 10.8 10.8 0 0 1-2.62-7.44v-1.08c0-3.03.87-5.55 2.6-7.54 1.75-2 3.85-3 6.33-3 2.59 0 4.63.83 6.11 2.5 1.48 1.67 2.23 3.9 2.23 6.67v2.03h-14.92v.56c0 2.34.63 4.3 1.89 5.88a6.07 6.07 0 0 0 4.98 2.36c1.46 0 2.7-.2 3.73-.6a7.46 7.46 0 0 0 2.63-1.74l1 1.6c-.8.83-1.8 1.5-3.01 2-1.22.5-2.67.74-4.35.74zm-.3-20c-1.73 0-3.18.67-4.35 2.02a8.82 8.82 0 0 0-2.05 5.08l.04.1h12.38v-.6c0-1.88-.54-3.44-1.62-4.7a5.48 5.48 0 0 0-4.4-1.9zm12.85 9.17c0-3.38.71-6.1 2.14-8.12a6.88 6.88 0 0 1 5.97-3.05 7.5 7.5 0 0 1 3.82.94 7.73 7.73 0 0 1 2.7 2.67V96.6h2.32V127h-2.07l-.2-3.09a7.26 7.26 0 0 1-6.61 3.49 7 7 0 0 1-5.93-2.83c-1.43-1.89-2.14-4.42-2.14-7.6v-.4zm2.35.41c0 2.57.5 4.62 1.53 6.14 1.02 1.52 2.56 2.28 4.62 2.28a6.6 6.6 0 0 0 3.78-1.02c1-.68 1.79-1.63 2.35-2.84v-9.99a7.6 7.6 0 0 0-2.27-3 6 6 0 0 0-3.82-1.15c-2.06 0-3.6.85-4.64 2.55-1.04 1.7-1.56 3.9-1.56 6.62v.41zm31.12-18.38h2.34V127h-2.34zm17.28 26.8a6.7 6.7 0 0 0 4.1-1.32 4.32 4.32 0 0 0 1.78-3.67h2.07l.04.12a5.79 5.79 0 0 1-2.34 4.9 8.73 8.73 0 0 1-5.65 1.97c-2.88 0-5.1-.99-6.67-2.97-1.57-1.98-2.35-4.52-2.35-7.63v-.82c0-3.08.78-5.62 2.36-7.6 1.57-1.99 3.79-2.98 6.64-2.98 2.32 0 4.25.68 5.8 2.05a6.62 6.62 0 0 1 2.23 5.39l-.04.12h-2.09c0-1.7-.57-3.04-1.7-4.05a6.1 6.1 0 0 0-4.2-1.51c-2.26 0-3.94.81-5.03 2.43a10.8 10.8 0 0 0-1.63 6.14v.82c0 2.5.54 4.57 1.62 6.18 1.08 1.62 2.77 2.43 5.06 2.43zm12.06-9.32c0-3.13.85-5.69 2.56-7.68 1.7-2 3.96-3 6.77-3 2.83 0 5.1 1 6.8 3 1.7 2 2.56 4.55 2.56 7.67v.66c0 3.13-.85 5.7-2.55 7.68a8.46 8.46 0 0 1-6.77 2.99c-2.84 0-5.1-1-6.81-2.99-1.71-1.99-2.56-4.55-2.56-7.69v-.64zm2.34.63c0 2.46.62 4.52 1.86 6.19a6.08 6.08 0 0 0 5.17 2.5c2.18 0 3.89-.83 5.13-2.5a10.06 10.06 0 0 0 1.87-6.19v-.64a10 10 0 0 0-1.88-6.14 6.07 6.07 0 0 0-5.15-2.53c-2.2 0-3.9.84-5.14 2.52a10.09 10.09 0 0 0-1.86 6.15v.64zm23.24-10.91l.21 3.7a7.58 7.58 0 0 1 2.75-3.03 7.62 7.62 0 0 1 4.09-1.07c2.29 0 4.03.7 5.23 2.1 1.2 1.41 1.8 3.6 1.8 6.58V127h-2.34v-12.92c0-2.44-.46-4.16-1.36-5.17-.9-1-2.19-1.51-3.86-1.51a6 6 0 0 0-4.01 1.3 7.26 7.26 0 0 0-2.24 3.47V127h-2.34v-21.2h2.07zm19.22 10.28c0-3.13.85-5.69 2.56-7.68 1.7-2 3.96-3 6.77-3 2.83 0 5.1 1 6.8 3 1.7 2 2.56 4.55 2.56 7.67v.66c0 3.13-.85 5.7-2.55 7.68a8.46 8.46 0 0 1-6.77 2.99c-2.83 0-5.1-1-6.81-2.99-1.71-1.99-2.56-4.55-2.56-7.69v-.64zm2.34.63c0 2.46.62 4.52 1.86 6.19a6.08 6.08 0 0 0 5.17 2.5c2.18 0 3.89-.83 5.13-2.5a10.06 10.06 0 0 0 1.87-6.19v-.64a10 10 0 0 0-1.88-6.14 6.07 6.07 0 0 0-5.15-2.53c-2.2 0-3.9.84-5.14 2.52a10.09 10.09 0 0 0-1.86 6.15v.64zm20.85-.14c0-3.38.72-6.1 2.16-8.12a6.95 6.95 0 0 1 6-3.05c1.5 0 2.8.33 3.9 1 1.09.65 2 1.58 2.7 2.78l.28-3.38h1.97v20.81c0 2.71-.75 4.86-2.25 6.43-1.5 1.57-3.6 2.36-6.28 2.36a16.05 16.05 0 0 1-6.25-1.33l.6-1.94a11.85 11.85 0 0 0 5.6 1.27c2.07 0 3.62-.6 4.67-1.77 1.05-1.18 1.57-2.83 1.57-4.93v-2.65a7.43 7.43 0 0 1-6.54 3.35 7.08 7.08 0 0 1-5.97-2.84c-1.44-1.9-2.16-4.42-2.16-7.59v-.4zm2.35.41c0 2.56.52 4.6 1.56 6.13a5.26 5.26 0 0 0 4.65 2.29 6.5 6.5 0 0 0 3.78-1.05 6.75 6.75 0 0 0 2.33-2.88v-9.84a7.46 7.46 0 0 0-2.24-3.05 5.94 5.94 0 0 0-3.83-1.18c-2.06 0-3.62.85-4.67 2.56-1.06 1.7-1.58 3.9-1.58 6.6v.42zm28.69-9.46l-1.73-.12c-1.47 0-2.68.42-3.63 1.26a7 7 0 0 0-2.02 3.48V127h-2.34v-21.2h2.05l.3 3.52v.24a7.62 7.62 0 0 1 2.45-3.06 6.17 6.17 0 0 1 4.54-1.04 7 7 0 0 1 .7.13l-.32 1.93zM661.97 127c-.16-.72-.27-1.34-.33-1.87a11.9 11.9 0 0 1-.1-1.59 9.38 9.38 0 0 1-3.13 2.76 8.81 8.81 0 0 1-4.39 1.1c-2.06 0-3.66-.54-4.8-1.63a5.75 5.75 0 0 1-1.7-4.36c0-1.94.84-3.5 2.52-4.66 1.69-1.17 3.96-1.75 6.83-1.75h4.67v-2.67c0-1.54-.49-2.74-1.46-3.62-.97-.87-2.33-1.31-4.07-1.31a6.4 6.4 0 0 0-4.05 1.26 3.77 3.77 0 0 0-1.61 3.06l-2.15-.01-.04-.12c-.08-1.6.64-3.03 2.16-4.3a8.75 8.75 0 0 1 5.79-1.89c2.33 0 4.2.6 5.62 1.78 1.42 1.2 2.13 2.9 2.13 5.12v10.42c0 .75.05 1.48.13 2.18.08.7.22 1.4.42 2.1h-2.44zm-7.68-1.6c1.68 0 3.16-.4 4.45-1.2a7.12 7.12 0 0 0 2.8-3.08V117h-4.7c-2.13 0-3.83.44-5.1 1.33-1.27.88-1.9 1.97-1.9 3.28 0 1.12.4 2.03 1.18 2.73.79.7 1.88 1.06 3.27 1.06zm32.11-8.43c0 3.18-.71 5.71-2.15 7.6a7.02 7.02 0 0 1-5.92 2.83 8.56 8.56 0 0 1-3.9-.84 7.01 7.01 0 0 1-2.71-2.41V135h-2.35v-29.2h1.97l.3 3.28a7.53 7.53 0 0 1 2.72-2.72 7.77 7.77 0 0 1 3.94-.96 6.89 6.89 0 0 1 5.95 3.05c1.44 2.03 2.15 4.73 2.15 8.12v.4zm-2.34-.43c0-2.7-.54-4.89-1.6-6.59a5.2 5.2 0 0 0-4.7-2.55c-1.57 0-2.85.38-3.83 1.13a6.9 6.9 0 0 0-2.21 2.93v10.2a6.41 6.41 0 0 0 2.3 2.74c1.02.67 2.28 1 3.79 1a5.3 5.3 0 0 0 4.66-2.31c1.06-1.54 1.59-3.59 1.59-6.14v-.41zm10.47-7.12a7.8 7.8 0 0 1 2.82-2.96 7.78 7.78 0 0 1 4.1-1.06c2.22 0 3.93.7 5.12 2.08 1.2 1.38 1.79 3.53 1.79 6.44V127H706v-13.14c0-2.3-.45-3.95-1.35-4.96-.9-1-2.15-1.5-3.74-1.5a6.3 6.3 0 0 0-4.01 1.27 7.35 7.35 0 0 0-2.38 3.37V127h-2.34V96.6h2.34v12.82zm25.92 11.75l.74 2.52h.12l6.39-17.89h2.61l-9.17 24.46a12.11 12.11 0 0 1-2.13 3.64c-.87 1-2.15 1.5-3.84 1.5a7.22 7.22 0 0 1-1.84-.26l.26-1.88a9.23 9.23 0 0 0 1.51.14c1.02 0 1.83-.36 2.44-1.08a9.6 9.6 0 0 0 1.57-2.79l1.1-2.86-8.16-20.87h2.6l5.8 15.38z"/><path class="a40" d="M19 193.01h1v38h-1zm25 0h1v38h-1z"/><path class="a40" d="M13 199.01h38v1H13zm0 25h38v1H13z"/><path d="M32.9 203l1.95.41-3.74 17.6-1.96-.4L32.9 203zm6.69 9L36 208.41v-2.82l6.42 6.42-6.42 6.4v-2.82l3.59-3.59zm-18.01.01L28 205.6v2.83L24.41 212l3.59 3.6v2.83l-6.42-6.4zm45.3 5.81c0-.93-.35-1.69-1.04-2.27-.7-.6-1.9-1.1-3.64-1.56a11.48 11.48 0 0 1-4.24-1.82 3.64 3.64 0 0 1-1.44-3.03c0-1.3.54-2.36 1.61-3.18a6.65 6.65 0 0 1 4.14-1.23 6.1 6.1 0 0 1 4.26 1.46 4.49 4.49 0 0 1 1.57 3.57l-.03.08h-1.3c0-1.14-.4-2.08-1.2-2.81a4.7 4.7 0 0 0-3.3-1.1c-1.36 0-2.43.3-3.2.91a2.8 2.8 0 0 0-1.16 2.28c0 .86.36 1.58 1.07 2.15.71.58 1.94 1.08 3.68 1.52a10.7 10.7 0 0 1 4.19 1.9 3.84 3.84 0 0 1 1.44 3.13c0 1.35-.56 2.43-1.67 3.23a7.1 7.1 0 0 1-4.26 1.2 7.8 7.8 0 0 1-4.46-1.28 4.1 4.1 0 0 1-1.85-3.75l.03-.07h1.29c0 1.32.5 2.3 1.48 2.94 1 .64 2.16.96 3.5.96 1.36 0 2.45-.3 3.28-.89a2.75 2.75 0 0 0 1.25-2.34zm9.55 1.3l.34 1.14h.07l.34-1.14 5.12-14.15h1.53L77.46 222h-1.32l-6.36-17.04h1.52l5.13 14.15zm22.38.84a5.21 5.21 0 0 1-2.09 1.56 8.88 8.88 0 0 1-3.82.73 6.4 6.4 0 0 1-4.89-2.03 7.34 7.34 0 0 1-1.9-5.24v-3.12c0-2.1.6-3.82 1.81-5.14a6.06 6.06 0 0 1 4.7-2c1.83 0 3.27.47 4.3 1.39a5.42 5.42 0 0 1 1.8 3.58l-.02.07h-1.3a4.83 4.83 0 0 0-1.45-2.77c-.75-.7-1.87-1.06-3.33-1.06a4.6 4.6 0 0 0-3.7 1.66 6.35 6.35 0 0 0-1.4 4.24v3.15c0 1.77.5 3.23 1.48 4.36 1 1.14 2.3 1.7 3.9 1.7 1.13 0 2.1-.15 2.88-.47a3.9 3.9 0 0 0 1.63-1.04v-4.48h-4.54v-1.2h5.94v6.11z"/><path class="a40" d="M120 193.01h1v38h-1zm25 0h1v38h-1z"/><path class="a40" d="M114 199.01h38v1h-38zm0 25h38v1h-38z"/><path d="M136 205h-1v-1h1m-5 1h-1v-1h1m5.53-1.84l1.3-1.3a.5.5 0 0 0-.7-.7l-1.48 1.47a5.96 5.96 0 0 0-5.31 0l-1.49-1.48a.5.5 0 0 0-.7.71l1.3 1.31a5.99 5.99 0 0 0-2.45 4.84h12c0-2-.97-3.75-2.47-4.85zm4.97 5.85c-.83 0-1.5.67-1.5 1.5v7a1.5 1.5 0 1 0 3 0v-7c0-.83-.67-1.5-1.5-1.5zm-17 0c-.83 0-1.5.67-1.5 1.5v7a1.5 1.5 0 1 0 3 0v-7c0-.83-.67-1.5-1.5-1.5zm2.5 10a1 1 0 0 0 1 1h1v3.5a1.5 1.5 0 1 0 3 0V219h2v3.5a1.5 1.5 0 1 0 3 0V219h1a1 1 0 0 0 1-1v-10h-12v10zm32.47 1.11l.34 1.14h.07l.34-1.14 5.12-14.15h1.53L160.5 222h-1.32l-6.37-17.04h1.53l5.13 14.15zm14.46 3.13c-1.59 0-2.9-.59-3.96-1.76a6.45 6.45 0 0 1-1.57-4.47v-.65c0-1.82.52-3.33 1.56-4.52a4.85 4.85 0 0 1 3.8-1.8c1.55 0 2.77.5 3.66 1.5a5.8 5.8 0 0 1 1.34 4v1.22h-8.95v.33c0 1.4.38 2.59 1.13 3.53a3.64 3.64 0 0 0 3 1.42 6.1 6.1 0 0 0 2.23-.37 4.42 4.42 0 0 0 1.58-1.04l.6.96c-.48.5-1.08.9-1.81 1.2-.73.3-1.6.45-2.6.45zm-.18-12c-1.03 0-1.9.4-2.6 1.21a5.3 5.3 0 0 0-1.24 3.05l.02.06h7.43v-.36a4.2 4.2 0 0 0-.97-2.83 3.29 3.29 0 0 0-2.63-1.13zm12.48 10.8a4 4 0 0 0 2.46-.8 2.6 2.6 0 0 0 1.07-2.2H191l.02.07a3.47 3.47 0 0 1-1.4 2.94 5.23 5.23 0 0 1-3.39 1.19c-1.73 0-3.06-.6-4-1.78a7.15 7.15 0 0 1-1.41-4.58v-.5c0-1.84.47-3.36 1.41-4.55a4.8 4.8 0 0 1 3.99-1.8c1.39 0 2.55.42 3.47 1.24.93.82 1.38 1.9 1.34 3.23l-.02.07h-1.25c0-1.01-.34-1.82-1.03-2.43-.68-.6-1.52-.9-2.51-.9-1.36 0-2.37.49-3.02 1.46-.65.97-.98 2.2-.98 3.68v.5c0 1.5.33 2.73.98 3.7.64.97 1.66 1.46 3.03 1.46zm10.1-15.12v3.36h2.8v1.2h-2.8v8.27c0 .83.15 1.42.46 1.77.3.34.7.52 1.2.52a7.46 7.46 0 0 0 1.4-.13l.21 1.02c-.23.1-.52.17-.85.23-.34.05-.67.08-1.01.08-.89 0-1.58-.28-2.08-.84-.5-.56-.74-1.45-.74-2.67v-8.25h-2.2v-1.2h2.2v-3.36h1.41zm5.05 9.52c0-1.87.52-3.4 1.54-4.6a5.08 5.08 0 0 1 4.07-1.8c1.7 0 3.05.6 4.08 1.8a6.85 6.85 0 0 1 1.53 4.6v.4c0 1.87-.5 3.41-1.53 4.6a5.07 5.07 0 0 1-4.06 1.8 5.1 5.1 0 0 1-4.09-1.8 6.84 6.84 0 0 1-1.53-4.6v-.4zm1.41.39c0 1.47.37 2.7 1.12 3.7.74 1 1.77 1.5 3.1 1.5 1.3 0 2.33-.5 3.08-1.5.74-1 1.12-2.23 1.12-3.7v-.4a6 6 0 0 0-1.13-3.68 3.64 3.64 0 0 0-3.1-1.51c-1.3 0-2.33.5-3.07 1.51a6.05 6.05 0 0 0-1.12 3.69v.39zm17.7-5.52l-1.05-.07c-.88 0-1.6.25-2.17.76a4.2 4.2 0 0 0-1.21 2.08v8.92h-1.4v-12.72h1.22l.18 2.1v.15c.37-.78.86-1.4 1.47-1.83a3.7 3.7 0 0 1 2.73-.63l.42.08-.2 1.16zm8.95 11.68v-17.03h4.96c2.08 0 3.8.7 5.16 2.08a7.33 7.33 0 0 1 2.04 5.35v2.19a7.3 7.3 0 0 1-2.04 5.35 6.94 6.94 0 0 1-5.16 2.07h-4.96zm1.4-15.83v14.64h3.56c1.68 0 3.07-.59 4.16-1.77a6.31 6.31 0 0 0 1.64-4.46v-2.22c0-1.78-.55-3.25-1.64-4.43a5.43 5.43 0 0 0-4.16-1.76h-3.57zm19.41 4.15l-1.04-.07c-.89 0-1.61.25-2.18.76a4.2 4.2 0 0 0-1.21 2.08v8.92h-1.4v-12.72h1.22l.18 2.1v.15c.37-.78.86-1.4 1.47-1.83a3.7 3.7 0 0 1 2.73-.63l.41.08-.18 1.16zM261.68 222a7.74 7.74 0 0 1-.25-2.07 5.63 5.63 0 0 1-1.88 1.66 5.3 5.3 0 0 1-2.64.66 4 4 0 0 1-2.88-.98 3.45 3.45 0 0 1-1.02-2.62c0-1.16.5-2.1 1.51-2.8a7.1 7.1 0 0 1 4.1-1.04h2.8v-1.6c0-.93-.29-1.65-.87-2.17a3.53 3.53 0 0 0-2.45-.8c-.97 0-1.78.26-2.43.76-.64.5-.96 1.12-.96 1.84h-1.3l-.02-.08c-.04-.96.39-1.82 1.3-2.58a5.25 5.25 0 0 1 3.47-1.13c1.4 0 2.53.35 3.38 1.07a3.78 3.78 0 0 1 1.28 3.07v6.25a8.03 8.03 0 0 0 .33 2.56h-1.47zm-4.6-.95c1 0 1.9-.24 2.66-.73a4.27 4.27 0 0 0 1.68-1.84V216h-2.82c-1.28 0-2.3.26-3.06.8-.76.52-1.14 1.18-1.14 1.97 0 .67.24 1.21.71 1.63a2.8 2.8 0 0 0 1.96.64zm12.14-3.16l.48 2.27h.07l.6-2.27 2.7-8.6h1.2l2.7 8.6.6 2.33h.08l.52-2.33 2.31-8.6h1.46l-3.7 12.72h-1.2l-2.8-8.7-.55-2.2h-.07l-.56 2.2-2.77 8.7h-1.21l-3.68-12.72h1.46l2.36 8.6zm23.66 4.11a7.74 7.74 0 0 1-.25-2.07 5.63 5.63 0 0 1-1.88 1.66 5.3 5.3 0 0 1-2.64.66 4 4 0 0 1-2.88-.98 3.45 3.45 0 0 1-1.02-2.62c0-1.16.5-2.1 1.51-2.8a7.1 7.1 0 0 1 4.1-1.04h2.8v-1.6c0-.93-.29-1.65-.87-2.17a3.53 3.53 0 0 0-2.45-.8c-.97 0-1.78.26-2.43.76-.64.5-.96 1.12-.96 1.84h-1.3l-.02-.08c-.04-.96.39-1.82 1.3-2.58a5.25 5.25 0 0 1 3.47-1.13c1.4 0 2.53.35 3.38 1.07a3.78 3.78 0 0 1 1.28 3.07v6.25a8.03 8.03 0 0 0 .33 2.56h-1.47zm-4.6-.95c1 0 1.9-.24 2.66-.73a4.27 4.27 0 0 0 1.68-1.84V216h-2.82c-1.28 0-2.3.26-3.06.8-.76.52-1.14 1.18-1.14 1.97 0 .67.24 1.21.71 1.63a2.8 2.8 0 0 0 1.96.64zm19.27-5.05c0 1.9-.43 3.42-1.29 4.55a4.21 4.21 0 0 1-3.55 1.7 4.9 4.9 0 0 1-2.4-.56 4.3 4.3 0 0 1-1.63-1.6l-.15 1.92h-1.2v-18.24h1.4v7.51c.42-.7.96-1.26 1.61-1.65a4.53 4.53 0 0 1 2.35-.58c1.52 0 2.71.6 3.57 1.83.86 1.22 1.3 2.84 1.3 4.87v.24zm-1.42-.25c0-1.63-.3-2.96-.93-3.97a3.06 3.06 0 0 0-2.78-1.53c-.98 0-1.77.24-2.37.73a4.35 4.35 0 0 0-1.32 1.88v5.77a4 4 0 0 0 1.4 1.76 3.9 3.9 0 0 0 2.31.66c1.23 0 2.15-.46 2.77-1.37.62-.91.92-2.14.92-3.68v-.25zm5.18-11.98h1.39v18.24h-1.39zm9.99 18.48a5.1 5.1 0 0 1-3.97-1.76 6.45 6.45 0 0 1-1.57-4.47v-.65c0-1.82.52-3.33 1.56-4.52a4.85 4.85 0 0 1 3.8-1.8c1.55 0 2.77.5 3.66 1.5a5.8 5.8 0 0 1 1.34 4v1.22h-8.95v.33c0 1.4.38 2.59 1.13 3.53a3.64 3.64 0 0 0 3 1.42 6.1 6.1 0 0 0 2.23-.37 4.42 4.42 0 0 0 1.58-1.04l.6.96c-.48.5-1.08.9-1.81 1.2-.73.3-1.6.45-2.6.45zm-.19-12c-1.04 0-1.9.4-2.6 1.21a5.3 5.3 0 0 0-1.24 3.05l.02.06h7.43v-.36a4.2 4.2 0 0 0-.97-2.83 3.29 3.29 0 0 0-2.63-1.13zm15.62 8.51c0-.6-.25-1.11-.74-1.56a5.97 5.97 0 0 0-2.64-1.09 8.9 8.9 0 0 1-3.36-1.3 2.69 2.69 0 0 1-1.08-2.3c0-.97.4-1.79 1.22-2.46.82-.67 1.9-1 3.24-1a5.1 5.1 0 0 1 3.4 1.06c.84.7 1.24 1.59 1.2 2.65l-.03.07h-1.3c0-.7-.3-1.3-.88-1.8a3.5 3.5 0 0 0-2.39-.78c-1.02 0-1.79.22-2.3.66-.51.44-.77.95-.77 1.55 0 .58.22 1.07.66 1.45.45.38 1.33.72 2.65 1 1.5.34 2.64.8 3.39 1.39a2.87 2.87 0 0 1 1.12 2.39 3.1 3.1 0 0 1-1.28 2.57c-.86.66-1.99.99-3.4.99a5.49 5.49 0 0 1-3.62-1.1 3.12 3.12 0 0 1-1.25-2.63l.02-.07h1.3c.05.9.42 1.57 1.11 1.98.7.41 1.5.62 2.44.62 1.02 0 1.82-.22 2.4-.67.6-.44.89-.98.89-1.62z"/><path class="a40" d="M359 193.01h1v38h-1zm25 0h1v38h-1z"/><path class="a40" d="M353 199.01h38v1h-38zm0 25h38v1h-38z"/><path d="M363 212v-5.24l6-1.32v6.48l-6 .09zm17-9v8.76l-10 .15v-6.7l10-2.2zm-17 10l6 .1v6.8l-6-1.14V213zm17 .26V222l-10-1.91v-6.99l10 .15zm18.48-1.01l4.82-7.28h1.7l-5.68 8.4 5.86 8.64h-1.67l-5-7.51-5 7.5h-1.7l5.86-8.63-5.68-8.4h1.7l4.8 7.28zm18.68 4.95h-7.81l-1.76 4.8h-1.45l6.48-17.03h1.32l6.43 17.04h-1.45l-1.76-4.8zm-7.35-1.2h6.9l-3.4-9.22h-.07l-3.43 9.23zm15.15-11.03l6.27 15h.07l6.29-15h1.85V222h-1.4v-7.53l.12-7.45-.06-.03-6.35 15h-.97l-6.33-14.92h-.07l.13 7.4V222h-1.4v-17.04h1.85zm19.6 15.83H453v1.2h-9.84v-17.03h1.4v15.84z"/><path class="a40" d="M475 193.01h1v38h-1zm25 0h1v38h-1z"/><path class="a40" d="M469 199.01h38v1h-38zm0 25h38v1h-38z"/><path d="M479 213h3v7h3v-7h3v-3h-9m6-5v3h5v12h3v-12h5v-3h-13zm26.54 12.19l.51 2.6.07.02.65-2.62 3.6-12.22h1.33l3.6 12.22.63 2.63.07-.01.55-2.62 3.08-12.22h1.43L522.68 222h-1.33l-3.83-13.07-.44-1.8H517l-.44 1.8L512.7 222h-1.34L507 204.97h1.44l3.1 12.22zm22.87 5.06c-1.59 0-2.9-.59-3.95-1.76a6.45 6.45 0 0 1-1.58-4.47v-.65c0-1.82.52-3.33 1.56-4.52a4.85 4.85 0 0 1 3.8-1.8c1.55 0 2.77.5 3.66 1.5a5.8 5.8 0 0 1 1.34 4v1.22h-8.95v.33c0 1.4.38 2.59 1.13 3.53a3.64 3.64 0 0 0 3 1.42 6.1 6.1 0 0 0 2.23-.37 4.4 4.4 0 0 0 1.58-1.04l.6.96c-.48.5-1.08.9-1.81 1.2-.73.3-1.6.45-2.6.45zm-.17-12c-1.04 0-1.92.4-2.62 1.21a5.29 5.29 0 0 0-1.23 3.05l.02.06h7.43v-.36a4.2 4.2 0 0 0-.97-2.83 3.3 3.3 0 0 0-2.63-1.13zm17.87 5.75c0 1.9-.43 3.42-1.29 4.55a4.21 4.21 0 0 1-3.55 1.7 4.9 4.9 0 0 1-2.4-.56 4.3 4.3 0 0 1-1.63-1.6l-.15 1.92h-1.2v-18.24h1.4v7.51c.42-.7.96-1.26 1.61-1.65a4.53 4.53 0 0 1 2.35-.58c1.52 0 2.71.6 3.57 1.83.86 1.22 1.3 2.84 1.3 4.87v.24zm-1.42-.25c0-1.63-.3-2.96-.93-3.97a3.06 3.06 0 0 0-2.78-1.53c-.98 0-1.77.24-2.37.73a4.35 4.35 0 0 0-1.32 1.88v5.77a4 4 0 0 0 1.4 1.76 3.9 3.9 0 0 0 2.31.66c1.23 0 2.15-.46 2.77-1.37.62-.91.92-2.14.92-3.68v-.25zm5.42 6.25v-11.5h-2.1v-1.2h2.1v-1.82c0-1.26.32-2.23.96-2.91a3.47 3.47 0 0 1 2.67-1.03 5.68 5.68 0 0 1 1.6.22l-.18 1.13a5.28 5.28 0 0 0-1.27-.15c-.77 0-1.36.24-1.76.72-.4.48-.61 1.15-.61 2v1.84h3.02v1.2h-3.02V222h-1.4zm6.72-6.55c0-1.87.5-3.4 1.53-4.6a5.09 5.09 0 0 1 4.07-1.8c1.7 0 3.05.6 4.08 1.8a6.84 6.84 0 0 1 1.53 4.6v.4c0 1.87-.5 3.41-1.53 4.6a5.07 5.07 0 0 1-4.06 1.8 5.1 5.1 0 0 1-4.09-1.8 6.84 6.84 0 0 1-1.53-4.6v-.4zm1.4.39c0 1.47.37 2.7 1.12 3.7.74 1 1.77 1.5 3.1 1.5 1.3 0 2.33-.5 3.08-1.5.74-1 1.12-2.23 1.12-3.7v-.4a6 6 0 0 0-1.13-3.68 3.64 3.64 0 0 0-3.1-1.51c-1.3 0-2.33.5-3.07 1.51a6.06 6.06 0 0 0-1.12 3.69v.39zm13.94-6.55l.13 2.21c.4-.78.96-1.38 1.65-1.81.7-.43 1.5-.64 2.45-.64 1.38 0 2.43.42 3.14 1.26.72.84 1.08 2.16 1.08 3.95V222h-1.4v-7.76c0-1.46-.27-2.49-.82-3.1-.54-.6-1.31-.9-2.31-.9-.99 0-1.79.26-2.41.78a4.34 4.34 0 0 0-1.34 2.08v8.9h-1.4v-12.72h1.23zm14.4-3.36v3.36h2.8v1.2h-2.8v8.27c0 .83.15 1.42.46 1.77.3.34.7.52 1.2.52a7.5 7.5 0 0 0 1.4-.13l.21 1.02c-.23.1-.52.17-.85.23-.34.05-.67.08-1.01.08-.89 0-1.58-.28-2.08-.84-.5-.56-.74-1.45-.74-2.67v-8.25h-2.2v-1.2h2.2v-3.36h1.41z"/><path class="a40" d="M623 193.01h1v38h-1zm25 0h1v38h-1z"/><path class="a40" d="M617 199.01h38v1h-38zm0 25h38v1h-38z"/><path d="M644.6 206.7a4.7 4.7 0 0 0-3.7-1.7h-13.95l1.67 3.58-2.23 10.43h3.66l2.23-10.43h3.12l-2.23 10.43h3.66l2.22-10.43h1.85c.4 0 .73.13.92.36.19.24.25.58.16.97l-1.94 9.1h3.65l1.79-8.35a4.7 4.7 0 0 0-.88-3.96zm23.43 9.97l.03.07a5.95 5.95 0 0 1-1.83 4.04 6.11 6.11 0 0 1-4.3 1.47c-1.9 0-3.43-.69-4.6-2.06a7.92 7.92 0 0 1-1.74-5.31v-2.77c0-2.17.58-3.94 1.75-5.32a5.72 5.72 0 0 1 4.59-2.06c1.8 0 3.25.48 4.3 1.44a5.9 5.9 0 0 1 1.83 4.05l-.03.07h-1.31a5.28 5.28 0 0 0-1.46-3.24 4.64 4.64 0 0 0-3.33-1.12c-1.5 0-2.7.57-3.6 1.73a6.96 6.96 0 0 0-1.35 4.42v2.8a7 7 0 0 0 1.35 4.45 4.34 4.34 0 0 0 3.6 1.72c1.43 0 2.55-.37 3.34-1.1a5.18 5.18 0 0 0 1.45-3.28h1.31zm3.25 5.33v-17.03h4.96c2.08 0 3.8.7 5.16 2.08a7.33 7.33 0 0 1 2.04 5.35v2.19a7.3 7.3 0 0 1-2.04 5.35 6.94 6.94 0 0 1-5.16 2.07h-4.96zm1.4-15.83v14.64h3.56c1.68 0 3.07-.59 4.16-1.77a6.31 6.31 0 0 0 1.64-4.46v-2.22c0-1.78-.55-3.25-1.64-4.43a5.43 5.43 0 0 0-4.16-1.76h-3.57zM698.55 222h-1.4l-9.69-14.64h-.07v14.65H686v-17.04h1.4l9.7 14.62h.06v-14.62h1.4V222z"/><path class="a40" d="M868 193.01h1v38h-1zm25 0h1v38h-1z"/><path class="a40" d="M862 199.01h38v1h-38zm0 25h38v1h-38z"/><path d="M875 209v-5h7v5h10v7h-5v5h-7v-5h-10v-7h5zm10 7h-3v3h3v-3zm-8-7h3v-3h-3v3zm-2 5v-3h-3v3h3zm12-3v3h3v-3h-3zm-5 0v3h3v-3h-3zm-5 0v3h3v-3h-3z"/><path class="a40" d="M912 193.01h1v38h-1zm25 0h1v38h-1z"/><path class="a40" d="M906 199.01h38v1h-38zm0 25h38v1h-38z"/><path d="M925 202a10 10 0 0 0-3.16 19.5c.5.09.68-.22.68-.49l-.01-1.7c-2.78.6-3.37-1.34-3.37-1.34-.46-1.15-1.11-1.46-1.11-1.46-.9-.62.07-.6.07-.6 1 .06 1.53 1.02 1.53 1.02.9 1.53 2.34 1.1 2.91.83.1-.64.35-1.08.63-1.33-2.22-.25-4.55-1.11-4.55-4.94 0-1.1.39-1.99 1.03-2.69a3.6 3.6 0 0 1 .1-2.64s.84-.27 2.75 1.02a9.57 9.57 0 0 1 5 0c1.91-1.3 2.75-1.02 2.75-1.02.55 1.37.2 2.39.1 2.64.64.7 1.03 1.6 1.03 2.69 0 3.84-2.34 4.68-4.57 4.93.36.3.68.92.68 1.85l-.01 2.74c0 .27.18.58.69.49A10 10 0 0 0 925 202z"/></svg>